<?xml version="1.0" encoding="UTF-8" standalone="no"?>
<!DOCTYPE svg PUBLIC "-//W3C//DTD SVG 1.1//EN" "http://www.w3.org/Graphics/SVG/1.1/DTD/svg11.dtd">
<!-- Created with Vectornator (http://vectornator.io/) -->
<svg height="100%" stroke-miterlimit="10" style="fill-rule:nonzero;clip-rule:evenodd;stroke-linecap:round;stroke-linejoin:round;" version="1.1" viewBox="0 0 1024 1024" width="100%" xml:space="preserve" xmlns="http://www.w3.org/2000/svg" xmlns:vectornator="http://vectornator.io" xmlns:xlink="http://www.w3.org/1999/xlink">
<defs/>
<g id="Two-Tone" vectornator:layerName="Two Tone">
<g opacity="1" vectornator:layerName="Group 1">
<path d="M493.762 197.722C493.628 197.846 491.157 198.122 488.271 198.335C481.72 198.82 462.273 200.937 461.344 201.267C460.965 201.402 457.554 202.069 453.764 202.75C437.628 205.649 418.282 210.986 401.979 217.035C388.472 222.047 367.911 231.61 356.792 238.051C354.708 239.258 351.69 241.001 350.087 241.923C331.325 252.713 307.033 271.741 289.127 289.675C264.958 313.881 245.848 340.333 230.617 370.664C216.429 398.919 207.172 426.869 201.748 457.831C195.506 493.457 195.605 530.704 202.037 567.418C203.158 573.817 204.19 579.168 204.331 579.309C204.663 579.64 204.975 578.717 205.978 574.442C210.013 557.233 218.833 532.732 227.422 514.872C235.594 497.879 244.93 482.229 256.909 465.447C258.399 463.359 268.55 450.48 271.371 447.1C278.551 438.494 299.743 417.388 308.69 409.931C321.775 399.024 337.791 387.598 349.795 380.602C352.201 379.201 355.349 377.34 356.792 376.467C360.063 374.489 376.479 366.097 380.406 364.396C382.009 363.702 385.947 361.984 389.157 360.579C392.366 359.174 396.433 357.554 398.194 356.979C399.955 356.404 401.658 355.748 401.979 355.522C402.73 354.992 411.209 352.111 419.762 349.48C436.464 344.342 450.806 341.342 474.278 338.076C493.166 335.449 525.95 335.415 538.997 338.01C540.6 338.329 544.698 339.126 548.104 339.78C556.07 341.312 567.895 344.888 576.92 348.495C625.145 367.77 662.663 407.808 678.824 457.248C681.473 465.351 683.603 473.837 684.68 480.57C685.144 483.456 685.873 487.916 686.306 490.482C687.536 497.779 687.369 527.828 686.054 535.377C685.495 538.584 684.752 542.913 684.401 544.998C682.076 558.772 675.959 576.536 668.298 591.758C656.456 615.281 638.323 636.782 616.557 653.116C599.354 666.025 575.47 677.475 555.614 682.331C553.529 682.84 550.906 683.497 549.783 683.786C548.661 684.074 543.282 685.038 537.831 685.921C528.691 687.407 526.647 687.533 511.593 687.529C494.999 687.524 492.281 687.29 477.485 684.583C466.073 682.497 447.954 676.678 438.443 672.043C437.308 671.493 436.281 671.137 436.162 671.255C435.36 672.047 464.196 700.366 477.193 711.546C509.937 739.711 548.72 764.552 588.265 782.686C601.078 788.565 600.254 788.204 609.546 791.943C671.46 816.861 738.849 828.455 804.58 825.504C812.755 825.139 822.462 824.563 826.151 824.225C842.781 822.703 871.532 818.428 882.414 815.861C884.342 815.406 887.445 814.73 889.315 814.361L892.715 813.685L882.027 808.293C871.194 802.83 858.996 796.141 852.843 792.285C847.952 789.222 833.975 780.011 830.232 777.385C822.156 771.709 802.314 756.242 799.913 753.742C799.756 753.575 797.26 751.355 794.373 748.801C783.653 739.328 763.73 719.072 757.92 711.735L756.204 709.568L761.068 703.226C788.247 667.795 807.188 627.994 817.489 584.645C819.584 575.84 822.917 557.279 823.773 549.662C826.408 526.233 826.3 494.989 823.502 472.116C815.805 409.169 786.945 346.718 744.164 300.423C712.156 265.784 676.099 240.102 634.717 222.468C606.129 210.285 573.646 201.901 544.828 199.268C540.979 198.917 535.424 198.374 532.484 198.063C527.445 197.53 494.284 197.237 493.762 197.722ZM378.657 390.11C361.971 398.739 349.662 406.425 335.546 417.028C314.911 432.527 293.115 454.369 277.374 475.322C245.295 518.027 225.355 569.475 220.3 622.59L219.602 629.923L223.296 638.332C252.836 705.568 305.1 760.485 370.931 793.452C427.477 821.77 490.25 832.094 554.739 823.685C567.713 821.991 596.609 815.617 602.846 813.072L604.823 812.266L601.354 810.888C572.387 799.379 537.083 780.385 510.438 761.971C450.444 720.523 397.897 666.219 367.33 614.09C347.546 580.35 337.086 547.749 335.994 516.428C334.39 470.407 352.191 424.226 384.515 390.548C387.625 387.308 389.941 384.663 389.661 384.67C389.381 384.677 384.429 387.125 378.657 390.11Z" fill="#10477e" fill-rule="evenodd" opacity="1" stroke="none" vectornator:layerName="path"/>
<path d="M493.762 197.722C493.628 197.846 491.157 198.122 488.271 198.335C481.72 198.82 462.273 200.937 461.344 201.267C460.965 201.402 457.554 202.069 453.764 202.75C437.628 205.649 418.282 210.986 401.979 217.035C388.472 222.047 367.911 231.61 356.792 238.051C354.708 239.258 351.69 241.001 350.087 241.923C331.325 252.713 307.033 271.741 289.127 289.675C264.958 313.881 245.848 340.333 230.617 370.664C216.429 398.919 207.172 426.869 201.748 457.831C195.506 493.457 195.605 530.703 202.037 567.418C203.158 573.817 204.19 579.168 204.331 579.309C204.663 579.64 204.975 578.717 205.978 574.442C210.013 557.233 218.833 532.732 227.422 514.872C235.594 497.879 244.93 482.229 256.909 465.447C258.399 463.358 268.55 450.48 271.371 447.1C278.551 438.494 299.743 417.388 308.69 409.931C321.775 399.024 337.791 387.598 349.795 380.602C352.201 379.201 355.349 377.34 356.792 376.467C360.063 374.489 376.479 366.097 380.406 364.396C382.009 363.702 385.947 361.984 389.157 360.579C392.366 359.174 396.433 357.554 398.194 356.979C399.955 356.404 401.658 355.748 401.979 355.522C402.73 354.992 411.209 352.111 419.762 349.48C436.464 344.342 450.806 341.342 474.278 338.076C493.166 335.449 525.95 335.414 538.997 338.01C540.6 338.329 544.698 339.126 548.104 339.78C556.07 341.312 567.895 344.888 576.92 348.495C625.145 367.77 662.663 407.808 678.824 457.248C681.473 465.351 683.603 473.837 684.68 480.57C685.144 483.456 685.873 487.916 686.306 490.482C687.536 497.779 687.369 527.828 686.054 535.377C685.495 538.584 684.752 542.913 684.401 544.998C682.076 558.772 675.959 576.535 668.298 591.758C656.456 615.281 638.323 636.781 616.557 653.116C599.354 666.025 575.47 677.475 555.614 682.331C553.529 682.84 550.906 683.497 549.783 683.786C548.661 684.074 543.282 685.038 537.831 685.921C528.691 687.407 526.647 687.533 511.593 687.529C494.999 687.524 492.281 687.29 477.485 684.583C466.073 682.497 447.954 676.678 438.443 672.043C437.308 671.493 436.281 671.137 436.162 671.255C435.36 672.047 464.196 700.366 477.193 711.546C509.937 739.711 548.72 764.552 588.265 782.686C601.078 788.565 600.254 788.204 609.546 791.943C671.46 816.861 738.849 828.455 804.58 825.504C812.755 825.139 822.462 824.563 826.151 824.225C842.781 822.703 871.532 818.428 882.414 815.861C884.342 815.406 887.445 814.73 889.315 814.356L892.715 813.685L882.027 808.293C871.194 802.83 858.996 796.141 852.843 792.285C847.952 789.222 833.975 780.011 830.232 777.385C822.156 771.709 802.314 756.242 799.913 753.742C799.751 753.575 797.26 751.355 794.373 748.801C783.653 739.328 763.73 719.072 757.92 711.735L756.204 709.568L761.068 703.226C788.247 667.795 807.188 627.994 817.489 584.645C819.584 575.84 822.917 557.279 823.773 549.662C826.408 526.233 826.3 494.989 823.502 472.116C815.805 409.169 786.945 346.717 744.164 300.423C712.156 265.784 676.099 240.102 634.717 222.468C606.129 210.285 573.646 201.901 544.828 199.268C540.979 198.917 535.424 198.374 532.484 198.063C527.445 197.53 494.284 197.237 493.762 197.722Z" fill="#11b0de" fill-rule="evenodd" opacity="1" stroke="none" vectornator:layerName="path"/>
</g>
</g>
<g id="All-White" vectornator:layerName="All White" visibility="hidden">
<path d="M493.762 197.722C493.628 197.846 491.157 198.122 488.271 198.335C481.72 198.82 462.273 200.937 461.344 201.267C460.965 201.402 457.554 202.069 453.764 202.75C437.628 205.649 418.282 210.986 401.979 217.035C388.472 222.047 367.911 231.61 356.792 238.051C354.708 239.258 351.69 241.001 350.087 241.923C331.325 252.713 307.033 271.741 289.127 289.675C264.958 313.881 245.848 340.333 230.617 370.664C216.429 398.919 207.172 426.869 201.748 457.831C195.506 493.457 195.605 530.704 202.037 567.418C203.158 573.817 204.19 579.168 204.331 579.309C204.663 579.64 204.975 578.717 205.978 574.442C210.013 557.233 218.833 532.732 227.422 514.872C235.594 497.879 244.93 482.229 256.909 465.447C258.399 463.359 268.55 450.48 271.371 447.1C278.551 438.494 299.743 417.388 308.69 409.931C321.775 399.024 337.791 387.598 349.795 380.602C352.201 379.201 355.349 377.34 356.792 376.467C360.063 374.489 376.479 366.097 380.406 364.396C382.009 363.702 385.947 361.984 389.157 360.579C392.366 359.174 396.433 357.554 398.194 356.979C399.955 356.404 401.658 355.748 401.979 355.522C402.73 354.992 411.209 352.111 419.762 349.48C436.464 344.342 450.806 341.342 474.278 338.076C493.166 335.449 525.95 335.415 538.997 338.01C540.6 338.329 544.698 339.126 548.104 339.78C556.07 341.312 567.895 344.888 576.92 348.495C625.145 367.77 662.663 407.808 678.824 457.248C681.473 465.351 683.603 473.837 684.68 480.57C685.144 483.456 685.873 487.916 686.306 490.482C687.536 497.779 687.369 527.828 686.054 535.377C685.495 538.584 684.752 542.913 684.401 544.998C682.076 558.772 675.959 576.536 668.298 591.758C656.456 615.281 638.323 636.782 616.557 653.116C599.354 666.025 575.47 677.475 555.614 682.331C553.529 682.84 550.906 683.497 549.783 683.786C548.661 684.074 543.282 685.038 537.831 685.921C528.691 687.407 526.647 687.533 511.593 687.529C494.999 687.524 492.281 687.29 477.485 684.583C466.073 682.497 447.954 676.678 438.443 672.043C437.308 671.493 436.281 671.137 436.162 671.255C435.36 672.047 464.196 700.366 477.193 711.546C509.937 739.711 548.72 764.552 588.265 782.686C601.078 788.565 600.254 788.204 609.546 791.943C671.46 816.861 738.849 828.455 804.58 825.504C812.755 825.139 822.462 824.563 826.151 824.225C842.781 822.703 871.532 818.428 882.414 815.861C884.342 815.406 887.445 814.73 889.315 814.361L892.715 813.685L882.027 808.293C871.194 802.83 858.996 796.141 852.843 792.285C847.952 789.222 833.975 780.011 830.232 777.385C822.156 771.709 802.314 756.242 799.913 753.742C799.756 753.575 797.26 751.355 794.373 748.801C783.653 739.328 763.73 719.072 757.92 711.735L756.204 709.568L761.068 703.226C788.247 667.795 807.188 627.994 817.489 584.645C819.584 575.84 822.917 557.279 823.773 549.662C826.408 526.233 826.3 494.989 823.502 472.116C815.805 409.169 786.945 346.718 744.164 300.423C712.156 265.784 676.099 240.102 634.717 222.468C606.129 210.285 573.646 201.901 544.828 199.268C540.979 198.917 535.424 198.374 532.484 198.063C527.445 197.53 494.284 197.237 493.762 197.722ZM378.657 390.11C361.971 398.739 349.662 406.425 335.546 417.028C314.911 432.527 293.115 454.369 277.374 475.322C245.295 518.027 225.355 569.475 220.3 622.59L219.602 629.923L223.296 638.332C252.836 705.568 305.1 760.485 370.931 793.452C427.477 821.77 490.25 832.094 554.739 823.685C567.713 821.991 596.609 815.617 602.846 813.072L604.823 812.266L601.354 810.888C572.387 799.379 537.083 780.385 510.438 761.971C450.444 720.523 397.897 666.219 367.33 614.09C347.546 580.35 337.086 547.749 335.994 516.428C334.39 470.407 352.191 424.226 384.515 390.548C387.625 387.308 389.941 384.663 389.661 384.67C389.381 384.677 384.429 387.125 378.657 390.11Z" fill="#fafafa" fill-rule="evenodd" opacity="1" stroke="none" vectornator:layerName="path"/>
</g>
<g id="All-Blue" vectornator:layerName="All Blue" visibility="hidden">
<path d="M493.762 197.722C493.628 197.846 491.157 198.122 488.271 198.335C481.72 198.82 462.273 200.937 461.344 201.267C460.965 201.402 457.554 202.069 453.764 202.75C437.628 205.649 418.282 210.986 401.979 217.035C388.472 222.047 367.911 231.61 356.792 238.051C354.708 239.258 351.69 241.001 350.087 241.923C331.325 252.713 307.033 271.741 289.127 289.675C264.958 313.881 245.848 340.333 230.617 370.664C216.429 398.919 207.172 426.869 201.748 457.831C195.506 493.457 195.605 530.704 202.037 567.418C203.158 573.817 204.19 579.168 204.331 579.309C204.663 579.64 204.975 578.717 205.978 574.442C210.013 557.233 218.833 532.732 227.422 514.872C235.594 497.879 244.93 482.229 256.909 465.447C258.399 463.359 268.55 450.48 271.371 447.1C278.551 438.494 299.743 417.388 308.69 409.931C321.775 399.024 337.791 387.598 349.795 380.602C352.201 379.201 355.349 377.34 356.792 376.467C360.063 374.489 376.479 366.097 380.406 364.396C382.009 363.702 385.947 361.984 389.157 360.579C392.366 359.174 396.433 357.554 398.194 356.979C399.955 356.404 401.658 355.748 401.979 355.522C402.73 354.992 411.209 352.111 419.762 349.48C436.464 344.342 450.806 341.342 474.278 338.076C493.166 335.449 525.95 335.415 538.997 338.01C540.6 338.329 544.698 339.126 548.104 339.78C556.07 341.312 567.895 344.888 576.92 348.495C625.145 367.77 662.663 407.808 678.824 457.248C681.473 465.351 683.603 473.837 684.68 480.57C685.144 483.456 685.873 487.916 686.306 490.482C687.536 497.779 687.369 527.828 686.054 535.377C685.495 538.584 684.752 542.913 684.401 544.998C682.076 558.772 675.959 576.536 668.298 591.758C656.456 615.281 638.323 636.782 616.557 653.116C599.354 666.025 575.47 677.475 555.614 682.331C553.529 682.84 550.906 683.497 549.783 683.786C548.661 684.074 543.282 685.038 537.831 685.921C528.691 687.407 526.647 687.533 511.593 687.529C494.999 687.524 492.281 687.29 477.485 684.583C466.073 682.497 447.954 676.678 438.443 672.043C437.308 671.493 436.281 671.137 436.162 671.255C435.36 672.047 464.196 700.366 477.193 711.546C509.937 739.711 548.72 764.552 588.265 782.686C601.078 788.565 600.254 788.204 609.546 791.943C671.46 816.861 738.849 828.455 804.58 825.504C812.755 825.139 822.462 824.563 826.151 824.225C842.781 822.703 871.532 818.428 882.414 815.861C884.342 815.406 887.445 814.73 889.315 814.361L892.715 813.685L882.027 808.293C871.194 802.83 858.996 796.141 852.843 792.285C847.952 789.222 833.975 780.011 830.232 777.385C822.156 771.709 802.314 756.242 799.913 753.742C799.756 753.575 797.26 751.355 794.373 748.801C783.653 739.328 763.73 719.072 757.92 711.735L756.204 709.568L761.068 703.226C788.247 667.795 807.188 627.994 817.489 584.645C819.584 575.84 822.917 557.279 823.773 549.662C826.408 526.233 826.3 494.989 823.502 472.116C815.805 409.169 786.945 346.718 744.164 300.423C712.156 265.784 676.099 240.102 634.717 222.468C606.129 210.285 573.646 201.901 544.828 199.268C540.979 198.917 535.424 198.374 532.484 198.063C527.445 197.53 494.284 197.237 493.762 197.722ZM378.657 390.11C361.971 398.739 349.662 406.425 335.546 417.028C314.911 432.527 293.115 454.369 277.374 475.322C245.295 518.027 225.355 569.475 220.3 622.59L219.602 629.923L223.296 638.332C252.836 705.568 305.1 760.485 370.931 793.452C427.477 821.77 490.25 832.094 554.739 823.685C567.713 821.991 596.609 815.617 602.846 813.072L604.823 812.266L601.354 810.888C572.387 799.379 537.083 780.385 510.438 761.971C450.444 720.523 397.897 666.219 367.33 614.09C347.546 580.35 337.086 547.749 335.994 516.428C334.39 470.407 352.191 424.226 384.515 390.548C387.625 387.308 389.941 384.663 389.661 384.67C389.381 384.677 384.429 387.125 378.657 390.11Z" fill="#10477e" fill-rule="evenodd" opacity="1" stroke="none" vectornator:layerName="path"/>
</g>
</svg>
