<?xml version="1.0" encoding="UTF-8" standalone="no"?>
<!DOCTYPE svg PUBLIC "-//W3C//DTD SVG 1.1//EN" "http://www.w3.org/Graphics/SVG/1.1/DTD/svg11.dtd">
<!-- Created with Vectornator (http://vectornator.io/) -->
<svg height="100%" stroke-miterlimit="10" style="fill-rule:nonzero;clip-rule:evenodd;stroke-linecap:round;stroke-linejoin:round;" version="1.1" viewBox="13 90.8915 900 246.217" width="100%" xml:space="preserve" xmlns="http://www.w3.org/2000/svg" xmlns:vectornator="http://vectornator.io" xmlns:xlink="http://www.w3.org/1999/xlink">
<defs/>
<g id="Layer-1" vectornator:layerName="Layer 1">
<g opacity="1" vectornator:layerName="Group 1">
<path d="M129.102 90.9879C129.049 91.0365 128.082 91.1445 126.953 91.228C124.388 91.4176 116.777 92.2463 116.413 92.3755C116.265 92.4282 114.93 92.6893 113.446 92.9558C107.13 94.0907 99.558 96.1796 93.1769 98.5473C87.8899 100.509 79.8423 104.252 75.4903 106.773C74.6744 107.246 73.4933 107.928 72.8658 108.289C65.5221 112.512 56.014 119.96 49.0053 126.979C39.5452 136.454 32.0653 146.808 26.1037 158.679C20.5503 169.739 16.927 180.679 14.8039 192.798C12.3611 206.742 12.3997 221.321 14.9171 235.691C15.356 238.196 15.7601 240.29 15.8151 240.345C15.945 240.475 16.0671 240.114 16.4596 238.44C18.0391 231.705 21.4915 222.115 24.8533 215.124C28.052 208.473 31.7062 202.347 36.3946 195.778C36.9782 194.961 40.9514 189.92 42.0555 188.597C44.8656 185.229 53.1604 176.968 56.6625 174.049C61.7841 169.78 68.0529 165.308 72.7516 162.569C73.693 162.021 74.9254 161.293 75.4903 160.951C76.7706 160.176 83.1958 156.892 84.733 156.226C85.3605 155.955 86.9019 155.282 88.1581 154.732C89.4142 154.182 91.0061 153.548 91.6952 153.323C92.3848 153.098 93.0514 152.841 93.1769 152.753C93.4708 152.545 96.7897 151.418 100.137 150.388C106.675 148.377 112.288 147.203 121.475 145.924C128.869 144.896 141.701 144.882 146.807 145.898C147.435 146.023 149.039 146.335 150.372 146.591C153.49 147.191 158.118 148.59 161.651 150.002C180.527 157.547 195.212 173.218 201.537 192.569C202.574 195.741 203.408 199.063 203.829 201.698C204.011 202.828 204.296 204.573 204.466 205.578C204.947 208.434 204.882 220.195 204.367 223.15C204.148 224.405 203.857 226.1 203.72 226.916C202.81 232.307 200.416 239.26 197.417 245.218C192.782 254.425 185.685 262.842 177.165 269.234C170.432 274.287 161.083 278.769 153.311 280.669C152.495 280.869 151.469 281.126 151.029 281.239C150.59 281.352 148.485 281.729 146.351 282.075C142.773 282.656 141.973 282.706 136.081 282.704C129.586 282.702 128.522 282.61 122.731 281.551C118.264 280.735 111.172 278.457 107.449 276.643C107.005 276.428 106.603 276.288 106.556 276.334C106.243 276.644 117.529 287.729 122.617 292.104C135.433 303.129 150.613 312.852 166.091 319.95C171.106 322.251 170.784 322.11 174.421 323.573C198.655 333.326 225.032 337.864 250.76 336.709C253.959 336.566 257.759 336.341 259.203 336.209C265.712 335.613 276.965 333.94 281.225 332.935C281.979 332.757 283.194 332.492 283.926 332.348L285.257 332.083L281.073 329.973C276.833 327.834 272.059 325.216 269.65 323.707C267.736 322.508 262.265 318.903 260.8 317.875C257.639 315.653 249.873 309.599 248.933 308.621C248.871 308.555 247.895 307.686 246.764 306.687C242.568 302.979 234.771 295.05 232.496 292.178L231.825 291.33L233.729 288.848C244.367 274.98 251.78 259.402 255.812 242.434C256.632 238.988 257.937 231.723 258.272 228.741C259.303 219.571 259.261 207.342 258.166 198.389C255.153 173.751 243.857 149.307 227.112 131.186C214.584 117.628 200.471 107.576 184.273 100.674C173.084 95.9053 160.369 92.6238 149.089 91.5931C147.583 91.4555 145.409 91.2433 144.258 91.1214C142.286 90.9126 129.306 90.7983 129.102 90.9879ZM84.0482 166.291C77.5174 169.668 72.6996 172.677 67.174 176.827C59.0974 182.894 50.5662 191.442 44.4051 199.644C31.8488 216.359 24.0443 236.497 22.0655 257.286L21.7923 260.156L23.2383 263.448C34.8005 289.765 55.2572 311.26 81.0243 324.163C103.157 335.248 127.727 339.289 152.969 335.997C158.047 335.334 169.357 332.839 171.799 331.843L172.573 331.528L171.215 330.988C159.876 326.484 146.058 319.049 135.629 311.842C112.147 295.618 91.579 274.363 79.6147 253.959C71.8713 240.753 67.777 227.993 67.3496 215.733C66.7218 197.72 73.6893 179.644 86.3414 166.462C87.5586 165.194 88.465 164.159 88.3553 164.161C88.2459 164.164 86.3076 165.122 84.0482 166.291Z" fill="#10477e" fill-rule="evenodd" opacity="1" stroke="none" vectornator:layerName="path"/>
<path d="M129.102 90.9879C129.049 91.0365 128.082 91.1445 126.953 91.228C124.388 91.4176 116.777 92.2463 116.413 92.3755C116.265 92.4282 114.93 92.6893 113.446 92.9558C107.13 94.0907 99.558 96.1796 93.1769 98.5473C87.8899 100.509 79.8423 104.252 75.4903 106.773C74.6744 107.246 73.4933 107.928 72.8658 108.289C65.5221 112.512 56.014 119.96 49.0053 126.979C39.5452 136.454 32.0653 146.808 26.1037 158.679C20.5503 169.739 16.927 180.679 14.8039 192.798C12.3611 206.742 12.3997 221.321 14.9171 235.691C15.356 238.196 15.7601 240.29 15.8151 240.345C15.945 240.475 16.0671 240.114 16.4596 238.44C18.0391 231.705 21.4915 222.115 24.8533 215.124C28.052 208.473 31.7062 202.347 36.3946 195.778C36.9782 194.961 40.9514 189.92 42.0555 188.597C44.8656 185.229 53.1604 176.968 56.6625 174.049C61.7841 169.78 68.0529 165.308 72.7516 162.569C73.693 162.021 74.9254 161.293 75.4903 160.951C76.7706 160.176 83.1958 156.892 84.733 156.226C85.3605 155.955 86.9019 155.282 88.1581 154.732C89.4142 154.182 91.0061 153.548 91.6952 153.323C92.3848 153.098 93.0514 152.841 93.1769 152.753C93.4708 152.545 96.7897 151.418 100.137 150.388C106.675 148.377 112.288 147.203 121.475 145.924C128.869 144.896 141.701 144.882 146.807 145.898C147.435 146.023 149.039 146.335 150.372 146.591C153.49 147.191 158.118 148.59 161.651 150.002C180.527 157.547 195.212 173.218 201.537 192.569C202.574 195.741 203.408 199.063 203.829 201.698C204.011 202.828 204.296 204.573 204.466 205.578C204.947 208.434 204.882 220.195 204.367 223.15C204.148 224.405 203.857 226.1 203.72 226.916C202.81 232.307 200.416 239.26 197.417 245.218C192.782 254.425 185.685 262.842 177.165 269.234C170.432 274.287 161.083 278.769 153.311 280.669C152.495 280.869 151.469 281.126 151.029 281.239C150.59 281.352 148.485 281.729 146.351 282.075C142.773 282.656 141.973 282.706 136.081 282.704C129.586 282.702 128.522 282.61 122.731 281.551C118.264 280.735 111.172 278.457 107.449 276.643C107.005 276.428 106.603 276.288 106.556 276.334C106.243 276.644 117.529 287.729 122.617 292.104C135.433 303.129 150.613 312.852 166.091 319.95C171.106 322.251 170.784 322.11 174.421 323.573C198.655 333.326 225.032 337.864 250.76 336.709C253.959 336.566 257.759 336.341 259.203 336.209C265.712 335.613 276.965 333.94 281.225 332.935C281.979 332.757 283.194 332.492 283.926 332.346L285.257 332.083L281.073 329.973C276.833 327.834 272.059 325.216 269.65 323.707C267.736 322.508 262.265 318.903 260.8 317.875C257.639 315.653 249.873 309.599 248.933 308.621C248.87 308.555 247.895 307.686 246.764 306.687C242.568 302.979 234.771 295.05 232.496 292.178L231.825 291.33L233.729 288.848C244.367 274.98 251.78 259.402 255.812 242.434C256.632 238.988 257.937 231.723 258.272 228.741C259.303 219.571 259.261 207.342 258.166 198.389C255.153 173.751 243.857 149.306 227.112 131.186C214.584 117.628 200.471 107.576 184.273 100.674C173.084 95.9053 160.369 92.6238 149.089 91.5931C147.583 91.4555 145.409 91.2433 144.258 91.1214C142.286 90.9126 129.306 90.7983 129.102 90.9879Z" fill="#11b0de" fill-rule="evenodd" opacity="1" stroke="none" vectornator:layerName="path 1"/>
<g opacity="1" vectornator:layerName="Group 1">
<path d="M433.228 300.276L404.794 300.276C401.635 300.276 399.096 299.542 397.178 298.075C395.26 296.609 394.113 294.672 393.736 292.265L388.659 262.702L332.806 262.702L320.62 292.265C319.792 294.371 318.175 296.233 315.768 297.85C313.361 299.467 310.69 300.276 307.757 300.276L278.871 300.276L357.404 135.876L395.09 135.876L433.228 300.276ZM343.074 237.653L384.371 237.653L376.36 190.714C375.683 186.802 374.95 182.834 374.16 178.81C373.37 174.785 372.712 171.118 372.185 167.808C371.583 169.614 370.794 171.663 369.816 173.958C368.838 176.252 367.879 178.49 366.938 180.671C365.998 182.853 365.095 184.884 364.23 186.764C363.365 188.645 362.745 190.037 362.369 190.939L343.074 237.653Z" fill="#10477e" fill-rule="nonzero" opacity="1" stroke="none"/>
<path d="M533.99 279.74C530.228 283.877 526.618 287.375 523.157 290.234C519.697 293.092 516.124 295.386 512.438 297.116C508.752 298.847 504.822 300.107 500.647 300.896C496.472 301.686 491.865 302.081 486.825 302.081C479.98 302.081 473.811 300.915 468.32 298.583C462.829 296.251 458.146 292.942 454.272 288.654C450.398 284.366 447.408 279.176 445.302 273.083C443.196 266.99 442.142 260.144 442.142 252.547C442.142 242.994 443.703 233.929 446.825 225.354C449.947 216.778 454.31 209.256 459.914 202.787C465.518 196.318 472.156 191.184 479.829 187.385C487.502 183.586 495.927 181.687 505.104 181.687C512.927 181.687 519.641 183.022 525.245 185.693C530.849 188.363 535.87 192.557 540.308 198.274L529.025 211.249C528.197 212.077 527.257 212.81 526.204 213.45C525.151 214.089 523.985 214.409 522.706 214.409C521.202 214.409 519.942 214.089 518.926 213.45C517.911 212.81 516.801 212.133 515.598 211.419C514.394 210.704 512.927 210.027 511.197 209.388C509.467 208.748 507.21 208.429 504.427 208.429C500.967 208.429 497.6 209.425 494.328 211.419C491.056 213.412 488.141 216.289 485.584 220.051C483.026 223.812 480.976 228.438 479.434 233.929C477.892 239.42 477.121 245.664 477.121 252.66C477.121 256.571 477.572 259.975 478.475 262.871C479.378 265.767 480.619 268.174 482.199 270.093C483.778 272.011 485.621 273.459 487.727 274.437C489.834 275.415 492.09 275.904 494.498 275.904C498.108 275.904 501.023 275.396 503.242 274.38C505.461 273.365 507.398 272.255 509.053 271.052C510.708 269.848 512.25 268.739 513.679 267.723C515.109 266.708 516.839 266.2 518.87 266.2C519.998 266.2 521.108 266.463 522.198 266.99C523.289 267.516 524.211 268.231 524.963 269.133L533.99 279.74Z" fill="#10477e" fill-rule="nonzero" opacity="1" stroke="none"/>
<path d="M551.592 275.001C551.592 274.474 551.592 273.835 551.592 273.083C551.592 272.33 551.648 271.259 551.761 269.867C551.874 268.475 552.062 266.632 552.325 264.338C552.588 262.044 552.946 259.016 553.397 255.255L559.377 207.413L550.012 207.413C548.583 207.413 547.379 206.943 546.401 206.003C545.423 205.062 544.934 203.652 544.934 201.771C544.934 201.696 545.01 201.038 545.16 199.797C545.311 198.556 545.461 197.239 545.611 195.848C545.762 194.456 545.912 193.158 546.063 191.955C546.213 190.751 546.288 190.074 546.288 189.924L546.627 186.877L564.342 183.267L574.159 154.719C575.287 151.109 577.844 149.303 581.831 149.303L600.787 149.303L596.5 183.492L622.677 183.492L619.744 207.413L593.566 207.413L587.924 253.337C587.548 256.421 587.266 258.847 587.078 260.615C586.89 262.382 586.74 263.736 586.627 264.677C586.514 265.617 586.439 266.256 586.401 266.595C586.363 266.933 586.345 267.14 586.345 267.215C586.345 269.397 586.852 271.221 587.868 272.688C588.883 274.155 590.482 274.888 592.663 274.888C593.867 274.888 594.864 274.756 595.653 274.493C596.443 274.23 597.139 273.929 597.741 273.59C598.343 273.252 598.907 272.951 599.433 272.688C599.96 272.424 600.562 272.293 601.239 272.293C602.292 272.293 603.082 272.537 603.608 273.026C604.135 273.515 604.624 274.286 605.075 275.339L612.748 291.926C608.084 295.311 603.082 297.85 597.741 299.542C592.4 301.235 587.022 302.081 581.606 302.081C577.092 302.081 573.03 301.461 569.42 300.219C565.809 298.978 562.706 297.173 560.111 294.803C557.515 292.434 555.484 289.594 554.018 286.284C552.551 282.975 551.742 279.213 551.592 275.001Z" fill="#10477e" fill-rule="nonzero" opacity="1" stroke="none"/>
<path d="M673.453 183.267L659.461 300.276L624.934 300.276L638.925 183.267L673.453 183.267ZM679.997 151.222C679.997 154.005 679.395 156.619 678.192 159.064C676.988 161.508 675.409 163.652 673.453 165.495C671.497 167.338 669.259 168.805 666.739 169.896C664.219 170.986 661.643 171.532 659.01 171.532C656.377 171.532 653.857 170.986 651.45 169.896C649.043 168.805 646.918 167.338 645.075 165.495C643.232 163.652 641.746 161.508 640.618 159.064C639.49 156.619 638.925 154.005 638.925 151.222C638.925 148.438 639.49 145.806 640.618 143.323C641.746 140.841 643.27 138.659 645.188 136.779C647.106 134.898 649.269 133.413 651.676 132.322C654.083 131.231 656.603 130.686 659.236 130.686C661.944 130.686 664.539 131.212 667.021 132.265C669.504 133.319 671.704 134.785 673.622 136.666C675.54 138.547 677.082 140.728 678.248 143.21C679.414 145.693 679.997 148.363 679.997 151.222Z" fill="#10477e" fill-rule="nonzero" opacity="1" stroke="none"/>
<path d="M732.804 276.129C736.715 276.129 740.213 274.944 743.297 272.575C746.381 270.205 748.995 266.971 751.139 262.871C753.283 258.772 754.938 253.995 756.104 248.541C757.27 243.088 757.853 237.277 757.853 231.108C757.853 222.608 756.706 216.534 754.411 212.886C752.117 209.237 748.375 207.413 743.184 207.413C739.273 207.413 735.775 208.598 732.691 210.967C729.607 213.337 726.993 216.553 724.849 220.615C722.705 224.677 721.05 229.453 719.884 234.945C718.718 240.436 718.135 246.266 718.135 252.434C718.135 260.784 719.282 266.82 721.577 270.544C723.871 274.267 727.613 276.129 732.804 276.129ZM729.644 302.081C723.1 302.081 716.988 300.99 711.309 298.809C705.629 296.627 700.702 293.449 696.527 289.274C692.352 285.1 689.08 279.947 686.711 273.816C684.341 267.685 683.156 260.633 683.156 252.66C683.156 242.279 684.868 232.744 688.29 224.056C691.713 215.368 696.321 207.864 702.113 201.546C707.905 195.227 714.618 190.3 722.254 186.764C729.889 183.229 737.919 181.461 746.344 181.461C752.888 181.461 758.981 182.552 764.623 184.733C770.265 186.915 775.173 190.093 779.348 194.268C783.523 198.443 786.814 203.596 789.221 209.726C791.628 215.857 792.831 222.909 792.831 230.883C792.831 241.113 791.12 250.572 787.697 259.26C784.275 267.949 779.667 275.471 773.875 281.827C768.083 288.184 761.369 293.148 753.734 296.721C746.099 300.295 738.069 302.081 729.644 302.081Z" fill="#10477e" fill-rule="nonzero" opacity="1" stroke="none"/>
<path d="M868.656 300.276L877.457 225.918C877.608 224.714 877.72 223.605 877.796 222.589C877.871 221.574 877.909 220.615 877.909 219.712C877.909 215.725 877.213 212.961 875.821 211.419C874.429 209.877 872.342 209.106 869.559 209.106C867.001 209.106 864.331 209.895 861.548 211.475C858.764 213.055 856.113 215.274 853.593 218.132C851.073 220.991 848.76 224.47 846.653 228.57C844.547 232.669 842.892 237.201 841.689 242.166L835.257 300.276L800.279 300.276L814.27 183.267L832.323 183.267C835.934 183.267 838.755 184.113 840.786 185.805C842.817 187.498 843.833 190.262 843.833 194.099L843.833 203.464C849.474 195.942 855.643 190.394 862.337 186.821C869.032 183.248 875.953 181.461 883.099 181.461C887.462 181.461 891.467 182.251 895.116 183.831C898.764 185.41 901.905 187.724 904.537 190.77C907.17 193.817 909.239 197.559 910.743 201.997C912.248 206.435 913 211.55 913 217.343C913 218.697 912.944 220.088 912.831 221.517C912.718 222.947 912.586 224.413 912.436 225.918L903.635 300.276L868.656 300.276Z" fill="#10477e" fill-rule="nonzero" opacity="1" stroke="none"/>
</g>
</g>
</g>
</svg>
