<?xml version="1.0" encoding="UTF-8" standalone="no"?>
<svg
   version="1.1"
   viewBox="0.0 0.0 960.0 540.0"
   fill="none"
   stroke="none"
   stroke-linecap="square"
   stroke-miterlimit="10"
   id="svg7"
   sodipodi:docname="yt-ERM-thumbnail.svg"
   inkscape:version="1.3.2 (091e20ef0f, 2023-11-25)"
   xmlns:inkscape="http://www.inkscape.org/namespaces/inkscape"
   xmlns:sodipodi="http://sodipodi.sourceforge.net/DTD/sodipodi-0.dtd"
   xmlns="http://www.w3.org/2000/svg"
   xmlns:svg="http://www.w3.org/2000/svg"
   xmlns:vectornator="http://vectornator.io">
  <defs
     id="defs7">
    <inkscape:path-effect
       effect="fillet_chamfer"
       id="path-effect9"
       is_visible="true"
       lpeversion="1"
       nodesatellites_param="F,0,0,1,0,40,0,1 @ F,0,0,1,0,40,0,1 @ F,0,0,1,0,40,0,1 @ F,0,0,1,0,40,0,1"
       radius="40"
       unit="px"
       method="auto"
       mode="F"
       chamfer_steps="1"
       flexible="false"
       use_knot_distance="true"
       apply_no_radius="true"
       apply_with_radius="true"
       only_selected="false"
       hide_knots="false" />
    <inkscape:path-effect
       effect="fillet_chamfer"
       id="path-effect8"
       is_visible="true"
       lpeversion="1"
       nodesatellites_param="F,0,0,1,0,0,0,1 @ F,0,0,1,0,0,0,1 @ F,0,0,1,0,0,0,1 @ F,0,0,1,0,0,0,1"
       radius="0"
       unit="px"
       method="auto"
       mode="F"
       chamfer_steps="1"
       flexible="false"
       use_knot_distance="true"
       apply_no_radius="true"
       apply_with_radius="true"
       only_selected="false"
       hide_knots="false" />
    <inkscape:path-effect
       effect="fillet_chamfer"
       id="path-effect7"
       is_visible="true"
       lpeversion="1"
       nodesatellites_param="F,0,0,1,0,0,0,1 @ F,0,0,1,0,0,0,1 @ F,0,0,1,0,0,0,1 @ F,0,0,1,0,0,0,1"
       radius="0"
       unit="px"
       method="auto"
       mode="F"
       chamfer_steps="1"
       flexible="false"
       use_knot_distance="true"
       apply_no_radius="true"
       apply_with_radius="true"
       only_selected="false"
       hide_knots="false" />
    <filter
       style="color-interpolation-filters:sRGB;"
       inkscape:label="Drop Shadow"
       id="filter10"
       x="-0.48994048"
       y="-0.48985828"
       width="2.3881647"
       height="2.1486332">
      <feFlood
         result="flood"
         in="SourceGraphic"
         flood-opacity="0.498039"
         flood-color="rgb(0,0,0)"
         id="feFlood9" />
      <feGaussianBlur
         result="blur"
         in="SourceGraphic"
         stdDeviation="20.000000"
         id="feGaussianBlur9" />
      <feOffset
         result="offset"
         in="blur"
         dx="40.000000"
         dy="6.000000"
         id="feOffset9" />
      <feComposite
         result="comp1"
         operator="in"
         in="flood"
         in2="offset"
         id="feComposite9" />
      <feComposite
         result="fbSourceGraphic"
         operator="over"
         in="SourceGraphic"
         in2="comp1"
         id="feComposite10" />
      <feColorMatrix
         result="fbSourceGraphicAlpha"
         in="fbSourceGraphic"
         values="0 0 0 -1 0 0 0 0 -1 0 0 0 0 -1 0 0 0 0 1 0"
         id="feColorMatrix10" />
      <feFlood
         id="feFlood10"
         result="flood"
         in="fbSourceGraphic"
         flood-opacity="0.498039"
         flood-color="rgb(0,0,0)" />
      <feGaussianBlur
         id="feGaussianBlur10"
         result="blur"
         in="fbSourceGraphic"
         stdDeviation="3.000000" />
      <feOffset
         id="feOffset10"
         result="offset"
         in="blur"
         dx="6.000000"
         dy="6.000000" />
      <feComposite
         id="feComposite11"
         result="comp1"
         operator="in"
         in="flood"
         in2="offset" />
      <feComposite
         id="feComposite12"
         result="fbSourceGraphic"
         operator="over"
         in="fbSourceGraphic"
         in2="comp1" />
      <feColorMatrix
         result="fbSourceGraphicAlpha"
         in="fbSourceGraphic"
         values="0 0 0 -1 0 0 0 0 -1 0 0 0 0 -1 0 0 0 0 1 0"
         id="feColorMatrix12" />
      <feFlood
         id="feFlood12"
         result="flood"
         in="fbSourceGraphic"
         flood-opacity="0.498039"
         flood-color="rgb(0,0,0)" />
      <feGaussianBlur
         id="feGaussianBlur12"
         result="blur"
         in="fbSourceGraphic"
         stdDeviation="2.000000" />
      <feOffset
         id="feOffset12"
         result="offset"
         in="blur"
         dx="4.000000"
         dy="4.000000" />
      <feComposite
         id="feComposite13"
         result="comp1"
         operator="in"
         in="flood"
         in2="offset" />
      <feComposite
         id="feComposite14"
         result="fbSourceGraphic"
         operator="over"
         in="fbSourceGraphic"
         in2="comp1" />
      <feColorMatrix
         result="fbSourceGraphicAlpha"
         in="fbSourceGraphic"
         values="0 0 0 -1 0 0 0 0 -1 0 0 0 0 -1 0 0 0 0 1 0"
         id="feColorMatrix14" />
      <feFlood
         id="feFlood14"
         result="flood"
         in="fbSourceGraphic"
         flood-opacity="0.317647"
         flood-color="rgb(0,0,0)" />
      <feGaussianBlur
         id="feGaussianBlur14"
         result="blur"
         in="fbSourceGraphic"
         stdDeviation="2.000000" />
      <feOffset
         id="feOffset14"
         result="offset"
         in="blur"
         dx="4.000000"
         dy="4.000000" />
      <feComposite
         id="feComposite15"
         result="comp1"
         operator="in"
         in="flood"
         in2="offset" />
      <feComposite
         id="feComposite16"
         result="fbSourceGraphic"
         operator="over"
         in="fbSourceGraphic"
         in2="comp1" />
      <feColorMatrix
         result="fbSourceGraphicAlpha"
         in="fbSourceGraphic"
         values="0 0 0 -1 0 0 0 0 -1 0 0 0 0 -1 0 0 0 0 1 0"
         id="feColorMatrix16" />
      <feFlood
         id="feFlood16"
         result="flood"
         in="fbSourceGraphic"
         flood-opacity="0.164706"
         flood-color="rgb(0,0,0)" />
      <feGaussianBlur
         id="feGaussianBlur16"
         result="blur"
         in="fbSourceGraphic"
         stdDeviation="2.000000" />
      <feOffset
         id="feOffset16"
         result="offset"
         in="blur"
         dx="4.000000"
         dy="4.000000" />
      <feComposite
         id="feComposite17"
         result="comp1"
         operator="in"
         in="flood"
         in2="offset" />
      <feComposite
         id="feComposite18"
         result="comp2"
         operator="over"
         in="fbSourceGraphic"
         in2="comp1" />
    </filter>
    <filter
       style="color-interpolation-filters:sRGB;"
       inkscape:label="Drop Shadow"
       id="filter20"
       x="-0.080197466"
       y="-0.080184356"
       width="1.2272262"
       height="1.227189">
      <feFlood
         result="flood"
         in="SourceGraphic"
         flood-opacity="0.164706"
         flood-color="rgb(0,0,0)"
         id="feFlood18" />
      <feGaussianBlur
         result="blur"
         in="SourceGraphic"
         stdDeviation="2.000000"
         id="feGaussianBlur18" />
      <feOffset
         result="offset"
         in="blur"
         dx="4.000000"
         dy="4.000000"
         id="feOffset18" />
      <feComposite
         result="comp1"
         operator="in"
         in="flood"
         in2="offset"
         id="feComposite19" />
      <feComposite
         result="fbSourceGraphic"
         operator="over"
         in="SourceGraphic"
         in2="comp1"
         id="feComposite20" />
      <feColorMatrix
         result="fbSourceGraphicAlpha"
         in="fbSourceGraphic"
         values="0 0 0 -1 0 0 0 0 -1 0 0 0 0 -1 0 0 0 0 1 0"
         id="feColorMatrix20" />
      <feFlood
         id="feFlood20"
         result="flood"
         in="fbSourceGraphic"
         flood-opacity="0.164706"
         flood-color="rgb(0,0,0)" />
      <feGaussianBlur
         id="feGaussianBlur20"
         result="blur"
         in="fbSourceGraphic"
         stdDeviation="3.000000" />
      <feOffset
         id="feOffset20"
         result="offset"
         in="blur"
         dx="6.000000"
         dy="6.000000" />
      <feComposite
         id="feComposite21"
         result="comp1"
         operator="in"
         in="flood"
         in2="offset" />
      <feComposite
         id="feComposite22"
         result="comp2"
         operator="over"
         in="fbSourceGraphic"
         in2="comp1" />
    </filter>
  </defs>
  <sodipodi:namedview
     id="namedview7"
     pagecolor="#505050"
     bordercolor="#eeeeee"
     borderopacity="1"
     inkscape:showpageshadow="0"
     inkscape:pageopacity="0"
     inkscape:pagecheckerboard="0"
     inkscape:deskcolor="#505050"
     inkscape:zoom="0.67265625"
     inkscape:cx="529.98839"
     inkscape:cy="305.50523"
     inkscape:window-width="1280"
     inkscape:window-height="731"
     inkscape:window-x="0"
     inkscape:window-y="0"
     inkscape:window-maximized="1"
     inkscape:current-layer="g7" />
  <clipPath
     id="g26f6ec6a291_0_0.0">
    <path
       d="m0 0l960.0 0l0 540.0l-960.0 0l0 -540.0z"
       clip-rule="nonzero"
       id="path1" />
  </clipPath>
  <g
     clip-path="url(#g26f6ec6a291_0_0.0)"
     id="g7">
    <path
       style="fill:#fafafa;fill-opacity:1;stroke:#eaeaea;stroke-opacity:1;stroke-width:2.29894712;stroke-dasharray:none"
       id="rect7"
       width="655.71265"
       height="443.56897"
       x="167.22371"
       y="63.349846"
       sodipodi:type="rect"
       transform="matrix(1.4408322,0,0,1.1818739,-233.32725,-66.992824)"
       inkscape:path-effect="#path-effect9"
       d="m 207.22371,63.349846 h 575.71265 a 40,40 45 0 1 40,40.000004 v 363.56897 a 40,40 135 0 1 -40,40 H 207.22371 a 40,40 45 0 1 -40,-40 V 103.34985 a 40,40 135 0 1 40,-40.000004 z" />
    <path
       fill="#000000"
       fill-opacity="0.0"
       d="m300.4357 301.16534l359.12857 0l0 98.55905l-359.12857 0z"
       fill-rule="evenodd"
       id="path3" />
    <path
       fill="#000000"
       fill-opacity="0.0"
       d="m65.51181 94.15748l828.9763 0l0 175.84253l-828.9763 0z"
       fill-rule="evenodd"
       id="path5" />
    <path
       fill="#10477e"
       d="m395.3087 167.15749l-8.734375 0q-1.453125 0 -2.40625 -0.671875q-0.953125 -0.6875 -1.3125 -1.765625l-2.875 -8.453125l-18.46875 0l-2.859375 8.453125q-0.328125 0.9375 -1.296875 1.6875q-0.96875 0.75 -2.375 0.75l-8.796875 0l18.796875 -48.562508l11.53125 0l18.796875 48.562508zm-31.1875 -18.5625l13.265625 0l-4.46875 -13.296875q-0.4375 -1.265625 -1.015625 -2.984375q-0.578125 -1.71875 -1.15625 -3.71875q-0.53125 2.03125 -1.09375 3.765625q-0.5625 1.734375 -1.0625 3.0l-4.46875 13.234375zm59.391174 18.5625q-0.96875 0 -1.625 -0.421875q-0.640625 -0.4375 -0.90625 -1.3125l-0.8125 -2.625q-1.03125 1.09375 -2.171875 2.0q-1.125 0.890625 -2.4375 1.546875q-1.3125 0.640625 -2.828125 0.984375q-1.515625 0.359375 -3.28125 0.359375q-2.703125 0 -5.0 -1.1875q-2.296875 -1.203125 -3.96875 -3.46875q-1.671875 -2.28125 -2.625 -5.5625q-0.9375 -3.28125 -0.9375 -7.46875q0 -3.875 1.0625 -7.1875q1.0625 -3.3125 3.015625 -5.734375q1.953125 -2.421875 4.6875 -3.78125q2.734375 -1.375 6.03125 -1.375q2.65625 0 4.5 0.796875q1.859375 0.78125 3.359375 2.046875l0 -17.500008l10.328125 0l0 49.890633l-6.390625 0zm-10.46875 -7.40625q1.140625 0 2.046875 -0.203125q0.921875 -0.21875 1.6875 -0.609375q0.765625 -0.40625 1.4375 -1.0q0.6875 -0.609375 1.359375 -1.40625l0 -14.671875q-1.203125 -1.296875 -2.546875 -1.8125q-1.34375 -0.515625 -2.84375 -0.515625q-1.4375 0 -2.640625 0.5625q-1.203125 0.5625 -2.09375 1.8125q-0.875 1.25 -1.375 3.25q-0.5 2.0 -0.5 4.84375q0 2.71875 0.390625 4.59375q0.40625 1.859375 1.125 3.015625q0.71875 1.140625 1.71875 1.640625q1.0 0.5 2.234375 0.5zm49.129303 7.40625q-0.96875 0 -1.625 -0.421875q-0.640625 -0.4375 -0.90625 -1.3125l-0.8125 -2.625q-1.03125 1.09375 -2.171875 2.0q-1.125 0.890625 -2.4375 1.546875q-1.3125 0.640625 -2.828125 0.984375q-1.515625 0.359375 -3.28125 0.359375q-2.703125 0 -5.0 -1.1875q-2.296875 -1.203125 -3.96875 -3.46875q-1.671875 -2.28125 -2.625 -5.5625q-0.9375 -3.28125 -0.9375 -7.46875q0 -3.875 1.0625 -7.1875q1.0625 -3.3125 3.015625 -5.734375q1.953125 -2.421875 4.6875 -3.78125q2.734375 -1.375 6.03125 -1.375q2.65625 0 4.5 0.796875q1.859375 0.78125 3.359375 2.046875l0 -17.500008l10.328125 0l0 49.890633l-6.390625 0zm-10.46875 -7.40625q1.140625 0 2.046875 -0.203125q0.921875 -0.21875 1.6875 -0.609375q0.765625 -0.40625 1.4375 -1.0q0.6875 -0.609375 1.359375 -1.40625l0 -14.671875q-1.203125 -1.296875 -2.546875 -1.8125q-1.34375 -0.515625 -2.84375 -0.515625q-1.4375 0 -2.640625 0.5625q-1.203125 0.5625 -2.09375 1.8125q-0.875 1.25 -1.375 3.25q-0.5 2.0 -0.5 4.84375q0 2.71875 0.390625 4.59375q0.40625 1.859375 1.125 3.015625q0.71875 1.140625 1.71875 1.640625q1.0 0.5 2.234375 0.5zm35.535553 -27.15625l0 34.5625l-10.34375 0l0 -34.5625l10.34375 0zm1.1875 -9.468758q0 1.234375 -0.5 2.328125q-0.5 1.078125 -1.375 1.890625q-0.859375 0.8125076 -2.015625 1.2968826q-1.140625 0.484375 -2.4375 0.484375q-1.265625 0 -2.375 -0.484375q-1.09375 -0.484375 -1.953125 -1.2968826q-0.84375 -0.8125 -1.328125 -1.890625q-0.46875 -1.09375 -0.46875 -2.328125q0 -1.265625 0.46875 -2.359375q0.484375 -1.109375 1.328125 -1.9375q0.859375 -0.828125 1.953125 -1.296875q1.109375 -0.46875 2.375 -0.46875q1.296875 0 2.4375 0.46875q1.15625 0.46875 2.015625 1.296875q0.875 0.828125 1.375 1.9375q0.5 1.09375 0.5 2.359375zm7.1376343 44.031258l0 -34.5625l6.390625 0q0.96875 0 1.625 0.4375q0.65625 0.4375 0.921875 1.296875l0.59375 2.0q1.0 -0.9375 2.0625 -1.734375q1.0625 -0.796875 2.28125 -1.34375q1.21875 -0.5625 2.6406555 -0.875q1.421875 -0.3125 3.078125 -0.3125q2.828125 0 5.015625 0.984375q2.1875 0.984375 3.6875 2.734375q1.5 1.75 2.265625 4.171875q0.765625 2.40625 0.765625 5.234375l0 21.96875l-10.328125 0l0 -21.96875q0 -2.53125 -1.171875 -3.9375q-1.171875 -1.421875 -3.4375305 -1.421875q-1.6875 0 -3.1875 0.734375q-1.5 0.734375 -2.875 1.96875l0 24.625l-10.328125 0zm50.863678 -35.15625q2.1875 0 4.140625 0.4375q1.953125 0.421875 3.625 1.21875l10.421875 0l0 3.765625q0 0.875 -0.484375 1.375q-0.484375 0.5 -1.640625 0.765625l-2.53125 0.5625q0.453125 1.5 0.453125 3.109375q0 2.59375 -1.078125 4.65625q-1.078125 2.0625 -2.96875 3.515625q-1.875 1.453125 -4.453125 2.234375q-2.5625 0.78125 -5.484375 0.78125q-1.640625 0 -3.078125 -0.203125q-1.125 0.671875 -1.125 1.546875q0 0.859375 0.90625 1.25q0.921875 0.375 2.421875 0.53125q1.5 0.140625 3.4375 0.203125q1.9375 0.046875 3.9375 0.234375q2.0 0.171875 3.921875 0.609375q1.9375 0.4375 3.4375 1.40625q1.5 0.953125 2.40625 2.578125q0.921875 1.609375 0.921875 4.109375q0 2.328125 -1.140625 4.5625q-1.125 2.234375 -3.328125 3.96875q-2.1875 1.734375 -5.390625 2.78125q-3.203125 1.046875 -7.328125 1.046875q-4.078125 0 -7.03125 -0.765625q-2.9375 -0.765625 -4.890625 -2.015625q-1.953125 -1.25 -2.890625 -2.890625q-0.921875 -1.625 -0.921875 -3.390625q0 -2.296875 1.390625 -3.875q1.40625 -1.59375 3.84375 -2.484375q-1.171875 -0.765625 -1.875 -1.96875q-0.6875 -1.203125 -0.6875 -3.03125q0 -0.765625 0.265625 -1.609375q0.265625 -0.859375 0.828125 -1.65625q0.5625 -0.796875 1.421875 -1.53125q0.875 -0.734375 2.078125 -1.296875q-2.703125 -1.4375 -4.25 -3.796875q-1.546875 -2.375 -1.546875 -5.5q0 -2.609375 1.09375 -4.6875q1.09375 -2.078125 3.015625 -3.53125q1.921875 -1.453125 4.515625 -2.234375q2.609375 -0.78125 5.640625 -0.78125zm7.65625 36.421875q0 -0.828125 -0.515625 -1.328125q-0.515625 -0.5 -1.40625 -0.796875q-0.875 -0.3125 -2.0625 -0.4375q-1.171875 -0.140625 -2.546875 -0.203125q-1.359375 -0.0625 -2.828125 -0.109375q-1.46875 -0.0625 -2.90625 -0.21875q-0.96875 0.65625 -1.578125 1.484375q-0.609375 0.8125 -0.609375 1.84375q0 0.734375 0.3125 1.328125q0.3125 0.609375 1.109375 1.03125q0.796875 0.4375 2.140625 0.6875q1.359375 0.25 3.421875 0.25q2.234375 0 3.671875 -0.265625q1.4375 -0.265625 2.28125 -0.734375q0.859375 -0.46875 1.1875 -1.125q0.328125 -0.640625 0.328125 -1.40625zm-7.65625 -20.359375q2.5625 0 3.703125 -1.28125q1.15625 -1.28125 1.15625 -3.328125q0 -2.09375 -1.15625 -3.296875q-1.140625 -1.203125 -3.703125 -1.203125q-2.578125 0 -3.734375 1.203125q-1.140625 1.203125 -1.140625 3.296875q0 1.0 0.28125 1.84375q0.28125 0.828125 0.875 1.453125q0.609375 0.609375 1.53125 0.96875q0.921875 0.34375 2.1875 0.34375zm59.38202 19.09375q-1.46875 0 -2.21875 -0.390625q-0.75 -0.40625 -1.25 -1.671875l-0.734375 -1.90625q-1.296875 1.109375 -2.5 1.9375q-1.1875 0.828125 -2.484375 1.421875q-1.28125 0.578125 -2.734375 0.859375q-1.4375 0.28125 -3.203125 0.28125q-2.375 0 -4.3125 -0.609375q-1.921875 -0.625 -3.28125 -1.8125q-1.34375 -1.203125 -2.078125 -2.984375q-0.734375 -1.796875 -0.734375 -4.125q0 -1.828125 0.9375 -3.765625q0.9375 -1.9375 3.234375 -3.515625q2.296875 -1.578125 6.1875 -2.640625q3.90625 -1.078125 9.84375 -1.203125l0 -1.46875q0 -3.03125 -1.25 -4.375q-1.25 -1.359375 -3.546875 -1.359375q-1.84375 0 -3.015625 0.40625q-1.15625 0.390625 -2.078125 0.890625q-0.90625 0.5 -1.78125 0.90625q-0.859375 0.390625 -2.0625 0.390625q-1.0625 0 -1.8125 -0.515625q-0.75 -0.515625 -1.1875 -1.28125l-1.859375 -3.234375q3.125 -2.765625 6.9375 -4.109375q3.828125 -1.359375 8.1875 -1.359375q3.140625 0 5.65625 1.03125q2.515625 1.015625 4.265625 2.828125q1.75 1.8125 2.671875 4.3125q0.9375 2.5 0.9375 5.46875l0 21.59375l-4.734375 0zm-11.859375 -6.296875q2.0 0 3.5 -0.703125q1.5 -0.703125 3.03125 -2.265625l0 -4.796875q-3.09375 0.125 -5.09375 0.53125q-2.0 0.40625 -3.171875 1.0q-1.171875 0.59375 -1.625 1.375q-0.4375 0.765625 -0.4375 1.65625q0 1.765625 0.953125 2.484375q0.96875 0.71875 2.84375 0.71875z"
       fill-rule="nonzero"
       id="path6" />
    <path
       fill="#10477e"
       d="m104.327515 229.18874l0 17.96875l-11.265625 0l0 -48.5625l15.796875 0q5.265625 0 8.984375 1.09375q3.71875 1.078125 6.0625 3.015625q2.34375 1.921875 3.40625 4.5625q1.078125 2.625 1.078125 5.734375q0 2.359375 -0.640625 4.46875q-0.625 2.09375 -1.875 3.875q-1.25 1.78125 -3.078125 3.1875q-1.8125 1.390625 -4.171875 2.296875q1.125 0.5625 2.109375 1.40625q0.984375 0.828125 1.71875 2.03125l10.328125 16.890625l-10.1875 0q-2.84375 0 -4.0625 -2.140625l-8.078125 -14.09375q-0.53125 -0.921875 -1.25 -1.328125q-0.703125 -0.40625 -2.015625 -0.40625l-2.859375 0zm0 -7.765625l4.53125 0q2.296875 0 3.90625 -0.578125q1.625 -0.578125 2.65625 -1.609375q1.03125 -1.046875 1.5 -2.421875q0.46875 -1.390625 0.46875 -2.984375q0 -3.203125 -2.09375 -5.0q-2.078125 -1.796875 -6.4375 -1.796875l-4.53125 0l0 14.390625zm47.85756 -9.359375q3.4375 0 6.28125 1.0625q2.84375 1.0625 4.890625 3.109375q2.0625 2.03125 3.203125 4.984375q1.15625 2.9375 1.15625 6.671875q0 1.171875 -0.109375 1.90625q-0.09375 0.734375 -0.359375 1.171875q-0.265625 0.421875 -0.71875 0.59375q-0.453125 0.15625 -1.140625 0.15625l-19.9375 0q0.5 4.34375 2.625 6.296875q2.140625 1.9375 5.515625 1.9375q1.796875 0 3.09375 -0.421875q1.296875 -0.4375 2.3125 -0.96875q1.015625 -0.53125 1.859375 -0.96875q0.859375 -0.4375 1.796875 -0.4375q1.234375 0 1.859375 0.90625l3.0 3.6875q-1.59375 1.84375 -3.453125 3.0q-1.84375 1.140625 -3.796875 1.796875q-1.953125 0.640625 -3.90625 0.890625q-1.9375 0.25 -3.703125 0.25q-3.640625 0 -6.828125 -1.171875q-3.171875 -1.1875 -5.5625 -3.515625q-2.375 -2.34375 -3.765625 -5.8125q-1.375 -3.46875 -1.375 -8.0625q0 -3.46875 1.171875 -6.5625q1.1875 -3.109375 3.40625 -5.4375q2.21875 -2.328125 5.359375 -3.6875q3.15625 -1.375 7.125 -1.375zm0.203125 7.125q-2.96875 0 -4.640625 1.6875q-1.65625 1.6875 -2.1875 4.84375l12.890625 0q0 -1.21875 -0.328125 -2.390625q-0.3125 -1.171875 -1.03125 -2.078125q-0.703125 -0.921875 -1.875 -1.484375q-1.171875 -0.578125 -2.828125 -0.578125zm46.1828 1.609375q-0.453125 0.5625 -0.890625 0.90625q-0.4375 0.328125 -1.234375 0.328125q-0.765625 0 -1.390625 -0.359375q-0.609375 -0.375 -1.375 -0.828125q-0.765625 -0.453125 -1.796875 -0.8125q-1.03125 -0.375 -2.578125 -0.375q-1.890625 0 -3.28125 0.703125q-1.375 0.703125 -2.28125 2.0q-0.890625 1.296875 -1.328125 3.1875q-0.4375 1.875 -0.4375 4.25q0 4.96875 1.921875 7.640625q1.921875 2.65625 5.28125 2.65625q1.796875 0 2.84375 -0.453125q1.046875 -0.453125 1.78125 -1.0q0.734375 -0.546875 1.34375 -1.015625q0.625 -0.46875 1.5625 -0.46875q1.234375 0 1.859375 0.90625l3.0 3.6875q-1.59375 1.84375 -3.359375 3.0q-1.765625 1.140625 -3.625 1.796875q-1.84375 0.640625 -3.71875 0.890625q-1.859375 0.25 -3.625 0.25q-3.15625 0 -6.046875 -1.1875q-2.875 -1.203125 -5.0625 -3.484375q-2.1875 -2.296875 -3.46875 -5.625q-1.28125 -3.328125 -1.28125 -7.59375q0 -3.734375 1.109375 -6.984375q1.125 -3.25 3.296875 -5.625q2.1875 -2.390625 5.40625 -3.75q3.21875 -1.375 7.453125 -1.375q4.0625 0 7.125 1.296875q3.078125 1.296875 5.53125 3.796875l-2.734375 3.640625zm22.863617 -8.734375q3.9375 0 7.171875 1.234375q3.234375 1.234375 5.546875 3.53125q2.3125 2.296875 3.59375 5.578125q1.296875 3.28125 1.296875 7.390625q0 4.125 -1.296875 7.453125q-1.28125 3.3125 -3.59375 5.625q-2.3125 2.3125 -5.546875 3.5625q-3.234375 1.25 -7.171875 1.25q-3.953125 0 -7.203125 -1.25q-3.25 -1.25 -5.609375 -3.5625q-2.34375 -2.3125 -3.625 -5.625q-1.28125 -3.328125 -1.28125 -7.453125q0 -4.109375 1.28125 -7.390625q1.28125 -3.28125 3.625 -5.578125q2.359375 -2.296875 5.609375 -3.53125q3.25 -1.234375 7.203125 -1.234375zm0 27.96875q3.578125 0 5.25 -2.515625q1.6875 -2.53125 1.6875 -7.65625q0 -5.140625 -1.6875 -7.625q-1.671875 -2.5 -5.25 -2.5q-3.65625 0 -5.359375 2.5q-1.703125 2.484375 -1.703125 7.625q0 5.125 1.703125 7.65625q1.703125 2.515625 5.359375 2.515625zm23.269928 7.125l0 -34.5625l6.125 0q0.765625 0 1.28125 0.140625q0.53125 0.125 0.875 0.40625q0.34375 0.28125 0.53125 0.75q0.1875 0.46875 0.3125 1.140625l0.578125 3.234375q1.8906403 -2.9375 4.2500153 -4.640625q2.375 -1.703125 5.171875 -1.703125q2.375 0 3.796875 1.140625l-1.328125 7.59375q-0.125 0.703125 -0.53125 0.984375q-0.40625 0.28125 -1.0625 0.28125q-0.578125 0 -1.34375 -0.140625q-0.765625 -0.15625 -1.921875 -0.15625q-4.078125 0 -6.4062653 4.328125l0 21.203125l-10.328125 0zm51.7946 0q-0.96875 0 -1.625 -0.421875q-0.640625 -0.4375 -0.90625 -1.3125l-0.8125 -2.625q-1.03125 1.09375 -2.171875 2.0q-1.125 0.890625 -2.4375 1.546875q-1.3125 0.640625 -2.828125 0.984375q-1.515625 0.359375 -3.28125 0.359375q-2.703125 0 -5.0 -1.1875q-2.296875 -1.203125 -3.96875 -3.46875q-1.671875 -2.28125 -2.625 -5.5625q-0.9375 -3.28125 -0.9375 -7.46875q0 -3.875 1.0625 -7.1875q1.0625 -3.3125 3.015625 -5.734375q1.953125 -2.421875 4.6875 -3.78125q2.734375 -1.375 6.03125 -1.375q2.65625 0 4.5 0.796875q1.859375 0.78125 3.359375 2.046875l0 -17.5l10.328125 0l0 49.890625l-6.390625 0zm-10.46875 -7.40625q1.140625 0 2.046875 -0.203125q0.921875 -0.21875 1.6875 -0.609375q0.765625 -0.40625 1.4375 -1.0q0.6875 -0.609375 1.359375 -1.40625l0 -14.671875q-1.203125 -1.296875 -2.546875 -1.8125q-1.34375 -0.515625 -2.84375 -0.515625q-1.4375 0 -2.640625 0.5625q-1.203125 0.5625 -2.09375 1.8125q-0.875 1.25 -1.375 3.25q-0.5 2.0 -0.5 4.84375q0 2.71875 0.390625 4.59375q0.40625 1.859375 1.125 3.015625q0.71875 1.140625 1.71875 1.640625q1.0 0.5 2.234375 0.5zm45.988678 -19.59375q-0.390625 0.640625 -0.84375 0.90625q-0.453125 0.265625 -1.15625 0.265625q-0.734375 0 -1.46875 -0.3125q-0.71875 -0.328125 -1.578125 -0.6875q-0.84375 -0.375 -1.921875 -0.6875q-1.0625 -0.3125 -2.421875 -0.3125q-1.96875 0 -3.015625 0.75q-1.046875 0.75 -1.046875 2.078125q0 0.96875 0.671875 1.609375q0.6875 0.625 1.8125 1.109375q1.140625 0.484375 2.5625 0.921875q1.4375 0.421875 2.9375 0.96875q1.5 0.53125 2.9375 1.25q1.4375 0.703125 2.5625 1.765625q1.140625 1.046875 1.8125 2.546875q0.6875 1.5 0.6875 3.59375q0 2.5625 -0.9375 4.734375q-0.921875 2.171875 -2.78125 3.734375q-1.84375 1.5625 -4.5625 2.4375q-2.71875 0.859375 -6.25 0.859375q-1.765625 0 -3.53125 -0.34375q-1.765625 -0.328125 -3.421875 -0.890625q-1.640625 -0.5625 -3.046875 -1.34375q-1.390625 -0.78125 -2.390625 -1.6875l2.40625 -3.796875q0.421875 -0.671875 1.015625 -1.046875q0.609375 -0.390625 1.578125 -0.390625q0.890625 0 1.609375 0.40625q0.71875 0.390625 1.546875 0.859375q0.84375 0.46875 1.953125 0.875q1.125 0.390625 2.828125 0.390625q1.1875 0 2.015625 -0.25q0.84375 -0.25 1.34375 -0.671875q0.5 -0.4375 0.734375 -0.96875q0.234375 -0.53125 0.234375 -1.109375q0 -1.03125 -0.703125 -1.6875q-0.703125 -0.671875 -1.84375 -1.15625q-1.125 -0.484375 -2.578125 -0.890625q-1.4375 -0.421875 -2.9375 -0.953125q-1.5 -0.546875 -2.953125 -1.296875q-1.453125 -0.75 -2.59375 -1.890625q-1.125 -1.15625 -1.828125 -2.8125q-0.703125 -1.671875 -0.703125 -4.03125q0 -2.203125 0.84375 -4.1875q0.859375 -1.984375 2.5625 -3.484375q1.703125 -1.5 4.265625 -2.375q2.5625 -0.890625 6.0 -0.890625q1.859375 0 3.609375 0.34375q1.75 0.328125 3.28125 0.921875q1.546875 0.59375 2.8125 1.421875q1.265625 0.8125 2.234375 1.78125l-2.34375 3.625zm53.69333 14.4375q0.40625 0 0.796875 0.15625q0.40625 0.140625 0.765625 0.515625l4.46875 4.6875q-2.921875 3.84375 -7.34375 5.796875q-4.421875 1.9375 -10.453125 1.9375q-5.53125 0 -9.921875 -1.875q-4.375 -1.890625 -7.421875 -5.203125q-3.046875 -3.3125 -4.6875 -7.859375q-1.625 -4.5625 -1.625 -9.890625q0 -5.4375 1.859375 -9.984375q1.875 -4.546875 5.21875 -7.84375q3.34375 -3.296875 8.015625 -5.125q4.671875 -1.84375 10.296875 -1.84375q2.734375 0 5.140625 0.484375q2.421875 0.484375 4.515625 1.34375q2.109375 0.84375 3.875 2.03125q1.765625 1.171875 3.140625 2.609375l-3.8125 5.09375q-0.359375 0.46875 -0.859375 0.859375q-0.5 0.375 -1.40625 0.375q-0.59375 0 -1.125 -0.265625q-0.53125 -0.265625 -1.140625 -0.640625q-0.59375 -0.390625 -1.3125 -0.84375q-0.71875 -0.453125 -1.703125 -0.828125q-0.984375 -0.390625 -2.296875 -0.65625q-1.3125 -0.265625 -3.078125 -0.265625q-3.0625 0 -5.609375 1.09375q-2.53125 1.078125 -4.34375 3.09375q-1.8125 2.015625 -2.828125 4.890625q-1.015625 2.859375 -1.015625 6.421875q0 3.734375 1.015625 6.640625q1.015625 2.890625 2.765625 4.875q1.75 1.984375 4.078125 3.015625q2.34375 1.03125 5.0 1.03125q1.53125 0 2.796875 -0.140625q1.265625 -0.15625 2.34375 -0.515625q1.09375 -0.375 2.078125 -0.953125q0.984375 -0.59375 1.984375 -1.453125q0.390625 -0.328125 0.859375 -0.546875q0.46875 -0.21875 0.96875 -0.21875zm26.558685 -22.53125q3.9375 0 7.171875 1.234375q3.234375 1.234375 5.546875 3.53125q2.3125 2.296875 3.59375 5.578125q1.296875 3.28125 1.296875 7.390625q0 4.125 -1.296875 7.453125q-1.28125 3.3125 -3.59375 5.625q-2.3125 2.3125 -5.546875 3.5625q-3.234375 1.25 -7.171875 1.25q-3.953125 0 -7.203125 -1.25q-3.25 -1.25 -5.609375 -3.5625q-2.34375 -2.3125 -3.625 -5.625q-1.28125 -3.328125 -1.28125 -7.453125q0 -4.109375 1.28125 -7.390625q1.28125 -3.28125 3.625 -5.578125q2.359375 -2.296875 5.609375 -3.53125q3.25 -1.234375 7.203125 -1.234375zm0 27.96875q3.578125 0 5.25 -2.515625q1.6875 -2.53125 1.6875 -7.65625q0 -5.140625 -1.6875 -7.625q-1.671875 -2.5 -5.25 -2.5q-3.65625 0 -5.359375 2.5q-1.703125 2.484375 -1.703125 7.625q0 5.125 1.703125 7.65625q1.703125 2.515625 5.359375 2.515625zm23.269928 7.125l0 -34.5625l6.390625 0q0.96875 0 1.625 0.4375q0.65625 0.4375 0.921875 1.296875l0.59375 2.0q1.0 -0.9375 2.0625 -1.734375q1.0625 -0.796875 2.28125 -1.34375q1.21875 -0.5625 2.640625 -0.875q1.421875 -0.3125 3.078125 -0.3125q2.828125 0 5.015625 0.984375q2.1875 0.984375 3.6875 2.734375q1.5 1.75 2.265625 4.171875q0.765625 2.40625 0.765625 5.234375l0 21.96875l-10.328125 0l0 -21.96875q0 -2.53125 -1.171875 -3.9375q-1.171875 -1.421875 -3.4375 -1.421875q-1.6875 0 -3.1875 0.734375q-1.5 0.734375 -2.875 1.96875l0 24.625l-10.328125 0zm50.785553 0.53125q-2.453125 0 -4.34375 -0.71875q-1.890625 -0.71875 -3.171875 -2.03125q-1.28125 -1.3125 -1.953125 -3.171875q-0.65625 -1.875 -0.65625 -4.171875l0 -17.859375l-2.9375 0q-0.796875 0 -1.359375 -0.515625q-0.5625 -0.53125 -0.5625 -1.53125l0 -4.03125l5.484375 -1.0625l2.046875 -8.4375q0.390625 -1.59375 2.265625 -1.59375l5.390625 0l0 10.09375l8.40625 0l0 7.078125l-8.40625 0l0 17.15625q0 1.203125 0.578125 1.984375q0.59375 0.78125 1.6875 0.78125q0.5625 0 0.953125 -0.109375q0.390625 -0.125 0.671875 -0.265625q0.28125 -0.15625 0.53125 -0.265625q0.25 -0.125 0.578125 -0.125q0.46875 0 0.75 0.21875q0.28125 0.21875 0.578125 0.6875l3.140625 4.890625q-2.0 1.5 -4.5 2.25q-2.5 0.75 -5.171875 0.75zm14.537445 -0.53125l0 -34.5625l6.125 0q0.765625 0 1.28125 0.140625q0.53125 0.125 0.875 0.40625q0.34375 0.28125 0.53125 0.75q0.1875 0.46875 0.3125 1.140625l0.578125 3.234375q1.890625 -2.9375 4.25 -4.640625q2.375 -1.703125 5.171875 -1.703125q2.375 0 3.796875 1.140625l-1.328125 7.59375q-0.125 0.703125 -0.53125 0.984375q-0.40625 0.28125 -1.0625 0.28125q-0.578125 0 -1.34375 -0.140625q-0.765625 -0.15625 -1.921875 -0.15625q-4.078125 0 -6.40625 4.328125l0 21.203125l-10.328125 0zm42.919617 -35.09375q3.9375 0 7.171875 1.234375q3.234375 1.234375 5.546875 3.53125q2.3125 2.296875 3.59375 5.578125q1.296875 3.28125 1.296875 7.390625q0 4.125 -1.296875 7.453125q-1.28125 3.3125 -3.59375 5.625q-2.3125 2.3125 -5.546875 3.5625q-3.234375 1.25 -7.171875 1.25q-3.953125 0 -7.203125 -1.25q-3.25 -1.25 -5.609375 -3.5625q-2.34375 -2.3125 -3.625 -5.625q-1.28125 -3.328125 -1.28125 -7.453125q0 -4.109375 1.28125 -7.390625q1.28125 -3.28125 3.625 -5.578125q2.359375 -2.296875 5.609375 -3.53125q3.25 -1.234375 7.203125 -1.234375zm0 27.96875q3.578125 0 5.25 -2.515625q1.6875 -2.53125 1.6875 -7.65625q0 -5.140625 -1.6875 -7.625q-1.671875 -2.5 -5.25 -2.5q-3.65625 0 -5.359375 2.5q-1.703125 2.484375 -1.703125 7.625q0 5.125 1.703125 7.65625q1.703125 2.515625 5.359375 2.515625zm33.941833 -42.765625l0 49.890625l-10.34375 0l0 -49.890625l10.34375 0zm48.252197 11.203125q-0.5 0.796875 -1.046875 1.203125q-0.546875 0.390625 -1.421875 0.390625q-0.765625 0 -1.65625 -0.484375q-0.875 -0.484375 -2.0 -1.078125q-1.109375 -0.609375 -2.546875 -1.09375q-1.421875 -0.484375 -3.265625 -0.484375q-3.15625 0 -4.71875 1.359375q-1.546875 1.34375 -1.546875 3.640625q0 1.46875 0.9375 2.4375q0.9375 0.96875 2.453125 1.671875q1.515625 0.703125 3.453125 1.28125q1.953125 0.578125 3.984375 1.296875q2.046875 0.71875 3.984375 1.6875q1.953125 0.96875 3.46875 2.46875q1.515625 1.5 2.453125 3.65625q0.9375 2.140625 0.9375 5.171875q0 3.359375 -1.171875 6.296875q-1.171875 2.9375 -3.390625 5.125q-2.203125 2.171875 -5.453125 3.421875q-3.25 1.25 -7.390625 1.25q-2.265625 0 -4.609375 -0.46875q-2.34375 -0.46875 -4.546875 -1.3125q-2.203125 -0.84375 -4.140625 -2.015625q-1.921875 -1.171875 -3.359375 -2.59375l3.328125 -5.265625q0.375 -0.609375 1.03125 -0.96875q0.671875 -0.375 1.4375 -0.375q1.0 0 2.015625 0.640625q1.015625 0.625 2.296875 1.390625q1.28125 0.765625 2.953125 1.40625q1.671875 0.625 3.9375 0.625q3.0625 0 4.75 -1.34375q1.703125 -1.34375 1.703125 -4.28125q0 -1.703125 -0.9375 -2.765625q-0.921875 -1.0625 -2.4375 -1.765625q-1.515625 -0.703125 -3.453125 -1.234375q-1.921875 -0.53125 -3.96875 -1.171875q-2.03125 -0.65625 -3.96875 -1.609375q-1.921875 -0.953125 -3.4375 -2.5q-1.515625 -1.546875 -2.453125 -3.859375q-0.9375 -2.328125 -0.9375 -5.71875q0 -2.734375 1.09375 -5.328125q1.109375 -2.609375 3.234375 -4.640625q2.140625 -2.03125 5.234375 -3.25q3.109375 -1.21875 7.109375 -1.21875q2.234375 0 4.34375 0.359375q2.125 0.34375 4.015625 1.03125q1.90625 0.671875 3.546875 1.625q1.65625 0.953125 2.953125 2.15625l-2.796875 5.234375zm33.98706 12.328125q-0.453125 0.5625 -0.890625 0.90625q-0.4375 0.328125 -1.234375 0.328125q-0.765625 0 -1.390625 -0.359375q-0.609375 -0.375 -1.375 -0.828125q-0.765625 -0.453125 -1.796875 -0.8125q-1.03125 -0.375 -2.578125 -0.375q-1.890625 0 -3.28125 0.703125q-1.375 0.703125 -2.28125 2.0q-0.890625 1.296875 -1.328125 3.1875q-0.4375 1.875 -0.4375 4.25q0 4.96875 1.921875 7.640625q1.921875 2.65625 5.28125 2.65625q1.796875 0 2.84375 -0.453125q1.046875 -0.453125 1.78125 -1.0q0.734375 -0.546875 1.34375 -1.015625q0.625 -0.46875 1.5625 -0.46875q1.234375 0 1.859375 0.90625l3.0 3.6875q-1.59375 1.84375 -3.359375 3.0q-1.765625 1.140625 -3.625 1.796875q-1.84375 0.640625 -3.71875 0.890625q-1.859375 0.25 -3.625 0.25q-3.15625 0 -6.046875 -1.1875q-2.875 -1.203125 -5.0625 -3.484375q-2.1875 -2.296875 -3.46875 -5.625q-1.28125 -3.328125 -1.28125 -7.59375q0 -3.734375 1.109375 -6.984375q1.125 -3.25 3.296875 -5.625q2.1875 -2.390625 5.40625 -3.75q3.21875 -1.375 7.453125 -1.375q4.0625 0 7.125 1.296875q3.078125 1.296875 5.53125 3.796875l-2.734375 3.640625zm7.4729004 26.359375l0 -49.890625l10.328125 0l0 18.359375q1.875 -1.59375 4.046875 -2.578125q2.1875 -0.984375 5.21875 -0.984375q2.828125 0 5.015625 0.984375q2.1875 0.984375 3.6875 2.734375q1.5 1.75 2.265625 4.171875q0.765625 2.40625 0.765625 5.234375l0 21.96875l-10.328125 0l0 -21.96875q0 -2.53125 -1.171875 -3.9375q-1.171875 -1.421875 -3.4375 -1.421875q-1.6875 0 -3.1875 0.734375q-1.5 0.734375 -2.875 1.96875l0 24.625l-10.328125 0zm53.457397 -35.09375q3.4375 0 6.28125 1.0625q2.84375 1.0625 4.890625 3.109375q2.0625 2.03125 3.203125 4.984375q1.15625 2.9375 1.15625 6.671875q0 1.171875 -0.109375 1.90625q-0.09375 0.734375 -0.359375 1.171875q-0.265625 0.421875 -0.71875 0.59375q-0.453125 0.15625 -1.140625 0.15625l-19.9375 0q0.5 4.34375 2.625 6.296875q2.140625 1.9375 5.515625 1.9375q1.796875 0 3.09375 -0.421875q1.296875 -0.4375 2.3125 -0.96875q1.015625 -0.53125 1.859375 -0.96875q0.859375 -0.4375 1.796875 -0.4375q1.234375 0 1.859375 0.90625l3.0 3.6875q-1.59375 1.84375 -3.453125 3.0q-1.84375 1.140625 -3.796875 1.796875q-1.953125 0.640625 -3.90625 0.890625q-1.9375 0.25 -3.703125 0.25q-3.640625 0 -6.828125 -1.171875q-3.171875 -1.1875 -5.5625 -3.515625q-2.375 -2.34375 -3.765625 -5.8125q-1.375 -3.46875 -1.375 -8.0625q0 -3.46875 1.171875 -6.5625q1.1875 -3.109375 3.40625 -5.4375q2.21875 -2.328125 5.359375 -3.6875q3.15625 -1.375 7.125 -1.375zm0.203125 7.125q-2.96875 0 -4.640625 1.6875q-1.65625 1.6875 -2.1875 4.84375l12.890625 0q0 -1.21875 -0.328125 -2.390625q-0.3125 -1.171875 -1.03125 -2.078125q-0.703125 -0.921875 -1.875 -1.484375q-1.171875 -0.578125 -2.828125 -0.578125zm45.52661 27.96875q-0.96875 0 -1.625 -0.421875q-0.640625 -0.4375 -0.90625 -1.3125l-0.8125 -2.625q-1.03125 1.09375 -2.171875 2.0q-1.125 0.890625 -2.4375 1.546875q-1.3125 0.640625 -2.828125 0.984375q-1.515625 0.359375 -3.28125 0.359375q-2.703125 0 -5.0 -1.1875q-2.296875 -1.203125 -3.96875 -3.46875q-1.671875 -2.28125 -2.625 -5.5625q-0.9375 -3.28125 -0.9375 -7.46875q0 -3.875 1.0625 -7.1875q1.0625 -3.3125 3.015625 -5.734375q1.953125 -2.421875 4.6875 -3.78125q2.734375 -1.375 6.03125 -1.375q2.65625 0 4.5 0.796875q1.859375 0.78125 3.359375 2.046875l0 -17.5l10.328125 0l0 49.890625l-6.390625 0zm-10.46875 -7.40625q1.140625 0 2.046875 -0.203125q0.921875 -0.21875 1.6875 -0.609375q0.765625 -0.40625 1.4375 -1.0q0.6875 -0.609375 1.359375 -1.40625l0 -14.671875q-1.203125 -1.296875 -2.546875 -1.8125q-1.34375 -0.515625 -2.84375 -0.515625q-1.4375 0 -2.640625 0.5625q-1.203125 0.5625 -2.09375 1.8125q-0.875 1.25 -1.375 3.25q-0.5 2.0 -0.5 4.84375q0 2.71875 0.390625 4.59375q0.40625 1.859375 1.125 3.015625q0.71875 1.140625 1.71875 1.640625q1.0 0.5 2.234375 0.5zm34.535522 -27.15625l0 21.9375q0 2.5625 1.15625 3.96875q1.171875 1.390625 3.4375 1.390625q1.703125 0 3.1875 -0.703125q1.484375 -0.703125 2.875 -1.96875l0 -24.625l10.328125 0l0 34.5625l-6.390625 0q-1.9375 0 -2.53125 -1.734375l-0.640625 -2.0q-1.0 0.96875 -2.0625 1.75q-1.0625 0.78125 -2.28125 1.34375q-1.21875 0.546875 -2.625 0.859375q-1.390625 0.3125 -3.0625 0.3125q-2.828125 0 -5.015625 -0.984375q-2.1875 -0.984375 -3.6875 -2.75q-1.5 -1.765625 -2.265625 -4.15625q-0.765625 -2.40625 -0.765625 -5.265625l0 -21.9375l10.34375 0zm39.660522 -15.328125l0 49.890625l-10.34375 0l0 -49.890625l10.34375 0zm23.12207 14.796875q3.4375 0 6.28125 1.0625q2.84375 1.0625 4.890625 3.109375q2.0625 2.03125 3.203125 4.984375q1.15625 2.9375 1.15625 6.671875q0 1.171875 -0.109375 1.90625q-0.09375 0.734375 -0.359375 1.171875q-0.265625 0.421875 -0.71875 0.59375q-0.453125 0.15625 -1.140625 0.15625l-19.9375 0q0.5 4.34375 2.625 6.296875q2.140625 1.9375 5.515625 1.9375q1.796875 0 3.09375 -0.421875q1.296875 -0.4375 2.3125 -0.96875q1.015625 -0.53125 1.859375 -0.96875q0.859375 -0.4375 1.796875 -0.4375q1.234375 0 1.859375 0.90625l3.0 3.6875q-1.59375 1.84375 -3.453125 3.0q-1.84375 1.140625 -3.796875 1.796875q-1.953125 0.640625 -3.90625 0.890625q-1.9375 0.25 -3.703125 0.25q-3.640625 0 -6.828125 -1.171875q-3.171875 -1.1875 -5.5625 -3.515625q-2.375 -2.34375 -3.765625 -5.8125q-1.375 -3.46875 -1.375 -8.0625q0 -3.46875 1.171875 -6.5625q1.1875 -3.109375 3.40625 -5.4375q2.21875 -2.328125 5.359375 -3.6875q3.15625 -1.375 7.125 -1.375zm0.203125 7.125q-2.96875 0 -4.640625 1.6875q-1.65625 1.6875 -2.1875 4.84375l12.890625 0q0 -1.21875 -0.328125 -2.390625q-0.3125 -1.171875 -1.03125 -2.078125q-0.703125 -0.921875 -1.875 -1.484375q-1.171875 -0.578125 -2.828125 -0.578125z"
       fill-rule="nonzero"
       id="path7" />
    <g
       id="Layer-1"
       vectornator:layerName="Layer 1"
       style="clip-rule:evenodd;fill-rule:nonzero;stroke-linecap:round;stroke-linejoin:round"
       transform="matrix(0.47316657,0,0,0.47316657,260.92388,240.21501)">
<g
   opacity="1"
   vectornator:layerName="Group 1"
   id="g9">
<path
   d="m 129.102,90.9879 c -0.053,0.0486 -1.02,0.1566 -2.149,0.2401 -2.565,0.1896 -10.176,1.0183 -10.54,1.1475 -0.148,0.0527 -1.483,0.3138 -2.967,0.5803 -6.316,1.1349 -13.888,3.2238 -20.2691,5.5915 -5.287,1.9617 -13.3346,5.7047 -17.6866,8.2257 -0.8159,0.473 -1.997,1.155 -2.6245,1.516 -7.3437,4.223 -16.8518,11.671 -23.8605,18.69 -9.4601,9.475 -16.94,19.829 -22.9016,31.7 -5.5534,11.06 -9.1767,22 -11.2998,34.119 -2.4428,13.944 -2.4042,28.523 0.1132,42.893 0.4389,2.505 0.843,4.599 0.898,4.654 0.1299,0.13 0.252,-0.231 0.6445,-1.905 1.5795,-6.735 5.0319,-16.325 8.3937,-23.316 3.1987,-6.651 6.8529,-12.777 11.5413,-19.346 0.5836,-0.817 4.5568,-5.858 5.6609,-7.181 2.8101,-3.368 11.1049,-11.629 14.607,-14.548 5.1216,-4.269 11.3904,-8.741 16.0891,-11.48 0.9414,-0.548 2.1738,-1.276 2.7387,-1.618 1.2803,-0.775 7.7055,-4.059 9.2427,-4.725 0.6275,-0.271 2.1689,-0.944 3.4251,-1.494 1.2561,-0.55 2.848,-1.184 3.5371,-1.409 0.6896,-0.225 1.3562,-0.482 1.4817,-0.57 0.2939,-0.208 3.6128,-1.335 6.9601,-2.365 6.538,-2.011 12.151,-3.185 21.338,-4.464 7.394,-1.028 20.226,-1.042 25.332,-0.026 0.628,0.125 2.232,0.437 3.565,0.693 3.118,0.6 7.746,1.999 11.279,3.411 18.876,7.545 33.561,23.216 39.886,42.567 1.037,3.172 1.871,6.494 2.292,9.129 0.182,1.13 0.467,2.875 0.637,3.88 0.481,2.856 0.416,14.617 -0.099,17.572 -0.219,1.255 -0.51,2.95 -0.647,3.766 -0.91,5.391 -3.304,12.344 -6.303,18.302 -4.635,9.207 -11.732,17.624 -20.252,24.016 -6.733,5.053 -16.082,9.535 -23.854,11.435 -0.816,0.2 -1.842,0.457 -2.282,0.57 -0.439,0.113 -2.544,0.49 -4.678,0.836 -3.578,0.581 -4.378,0.631 -10.27,0.629 -6.495,-0.002 -7.559,-0.094 -13.35,-1.153 -4.467,-0.816 -11.559,-3.094 -15.282,-4.908 -0.444,-0.215 -0.846,-0.355 -0.893,-0.309 -0.313,0.31 10.973,11.395 16.061,15.77 12.816,11.025 27.996,20.748 43.474,27.846 5.015,2.301 4.693,2.16 8.33,3.623 24.234,9.753 50.611,14.291 76.339,13.136 3.199,-0.143 6.999,-0.368 8.443,-0.5 6.509,-0.596 17.762,-2.269 22.022,-3.274 0.754,-0.178 1.969,-0.443 2.701,-0.587 l 1.331,-0.265 -4.184,-2.11 c -4.24,-2.139 -9.014,-4.757 -11.423,-6.266 -1.914,-1.199 -7.385,-4.804 -8.85,-5.832 -3.161,-2.222 -10.927,-8.276 -11.867,-9.254 -0.062,-0.066 -1.038,-0.935 -2.169,-1.934 -4.196,-3.708 -11.993,-11.637 -14.268,-14.509 l -0.671,-0.848 1.904,-2.482 c 10.638,-13.868 18.051,-29.446 22.083,-46.414 0.82,-3.446 2.125,-10.711 2.46,-13.693 1.031,-9.17 0.989,-21.399 -0.106,-30.352 -3.013,-24.638 -14.309,-49.082 -31.054,-67.203 -12.528,-13.558 -26.641,-23.61 -42.839,-30.512 -11.189,-4.7687 -23.904,-8.0502 -35.184,-9.0809 -1.506,-0.1376 -3.68,-0.3498 -4.831,-0.4717 -1.972,-0.2088 -14.952,-0.3231 -15.156,-0.1335 z M 84.0482,166.291 c -6.5308,3.377 -11.3486,6.386 -16.8742,10.536 -8.0766,6.067 -16.6078,14.615 -22.7689,22.817 -12.5563,16.715 -20.3608,36.853 -22.3396,57.642 l -0.2732,2.87 1.446,3.292 c 11.5622,26.317 32.0189,47.812 57.786,60.715 22.1327,11.085 46.7027,15.126 71.9447,11.834 5.078,-0.663 16.388,-3.158 18.83,-4.154 l 0.774,-0.315 -1.358,-0.54 C 159.876,326.484 146.058,319.049 135.629,311.842 112.147,295.618 91.579,274.363 79.6147,253.959 71.8713,240.753 67.777,227.993 67.3496,215.733 c -0.6278,-18.013 6.3397,-36.089 18.9918,-49.271 1.2172,-1.268 2.1236,-2.303 2.0139,-2.301 -0.1094,0.003 -2.0477,0.961 -4.3071,2.13 z"
   fill="#10477e"
   fill-rule="evenodd"
   opacity="1"
   stroke="none"
   vectornator:layerName="path"
   id="path1-6" />

<path
   d="m 129.102,90.9879 c -0.053,0.0486 -1.02,0.1566 -2.149,0.2401 -2.565,0.1896 -10.176,1.0183 -10.54,1.1475 -0.148,0.0527 -1.483,0.3138 -2.967,0.5803 -6.316,1.1349 -13.888,3.2238 -20.2691,5.5915 -5.287,1.9617 -13.3346,5.7047 -17.6866,8.2257 -0.8159,0.473 -1.997,1.155 -2.6245,1.516 -7.3437,4.223 -16.8518,11.671 -23.8605,18.69 -9.4601,9.475 -16.94,19.829 -22.9016,31.7 -5.5534,11.06 -9.1767,22 -11.2998,34.119 -2.4428,13.944 -2.4042,28.523 0.1132,42.893 0.4389,2.505 0.843,4.599 0.898,4.654 0.1299,0.13 0.252,-0.231 0.6445,-1.905 1.5795,-6.735 5.0319,-16.325 8.3937,-23.316 3.1987,-6.651 6.8529,-12.777 11.5413,-19.346 0.5836,-0.817 4.5568,-5.858 5.6609,-7.181 2.8101,-3.368 11.1049,-11.629 14.607,-14.548 5.1216,-4.269 11.3904,-8.741 16.0891,-11.48 0.9414,-0.548 2.1738,-1.276 2.7387,-1.618 1.2803,-0.775 7.7055,-4.059 9.2427,-4.725 0.6275,-0.271 2.1689,-0.944 3.4251,-1.494 1.2561,-0.55 2.848,-1.184 3.5371,-1.409 0.6896,-0.225 1.3562,-0.482 1.4817,-0.57 0.2939,-0.208 3.6128,-1.335 6.9601,-2.365 6.538,-2.011 12.151,-3.185 21.338,-4.464 7.394,-1.028 20.226,-1.042 25.332,-0.026 0.628,0.125 2.232,0.437 3.565,0.693 3.118,0.6 7.746,1.999 11.279,3.411 18.876,7.545 33.561,23.216 39.886,42.567 1.037,3.172 1.871,6.494 2.292,9.129 0.182,1.13 0.467,2.875 0.637,3.88 0.481,2.856 0.416,14.617 -0.099,17.572 -0.219,1.255 -0.51,2.95 -0.647,3.766 -0.91,5.391 -3.304,12.344 -6.303,18.302 -4.635,9.207 -11.732,17.624 -20.252,24.016 -6.733,5.053 -16.082,9.535 -23.854,11.435 -0.816,0.2 -1.842,0.457 -2.282,0.57 -0.439,0.113 -2.544,0.49 -4.678,0.836 -3.578,0.581 -4.378,0.631 -10.27,0.629 -6.495,-0.002 -7.559,-0.094 -13.35,-1.153 -4.467,-0.816 -11.559,-3.094 -15.282,-4.908 -0.444,-0.215 -0.846,-0.355 -0.893,-0.309 -0.313,0.31 10.973,11.395 16.061,15.77 12.816,11.025 27.996,20.748 43.474,27.846 5.015,2.301 4.693,2.16 8.33,3.623 24.234,9.753 50.611,14.291 76.339,13.136 3.199,-0.143 6.999,-0.368 8.443,-0.5 6.509,-0.596 17.762,-2.269 22.022,-3.274 0.754,-0.178 1.969,-0.443 2.701,-0.589 l 1.331,-0.263 -4.184,-2.11 c -4.24,-2.139 -9.014,-4.757 -11.423,-6.266 -1.914,-1.199 -7.385,-4.804 -8.85,-5.832 -3.161,-2.222 -10.927,-8.276 -11.867,-9.254 -0.063,-0.066 -1.038,-0.935 -2.169,-1.934 -4.196,-3.708 -11.993,-11.637 -14.268,-14.509 l -0.671,-0.848 1.904,-2.482 c 10.638,-13.868 18.051,-29.446 22.083,-46.414 0.82,-3.446 2.125,-10.711 2.46,-13.693 1.031,-9.17 0.989,-21.399 -0.106,-30.352 -3.013,-24.638 -14.309,-49.083 -31.054,-67.203 -12.528,-13.558 -26.641,-23.61 -42.839,-30.512 -11.189,-4.7687 -23.904,-8.0502 -35.184,-9.0809 -1.506,-0.1376 -3.68,-0.3498 -4.831,-0.4717 -1.972,-0.2088 -14.952,-0.3231 -15.156,-0.1335 z"
   fill="#11b0de"
   fill-rule="evenodd"
   opacity="1"
   stroke="none"
   vectornator:layerName="path 1"
   id="path2" />

<g
   opacity="1"
   vectornator:layerName="Group 1"
   id="g8">
<path
   d="m 433.228,300.276 h -28.434 c -3.159,0 -5.698,-0.734 -7.616,-2.201 -1.918,-1.466 -3.065,-3.403 -3.442,-5.81 l -5.077,-29.563 h -55.853 l -12.186,29.563 c -0.828,2.106 -2.445,3.968 -4.852,5.585 -2.407,1.617 -5.078,2.426 -8.011,2.426 h -28.886 l 78.533,-164.4 h 37.686 z m -90.154,-62.623 h 41.297 l -8.011,-46.939 c -0.677,-3.912 -1.41,-7.88 -2.2,-11.904 -0.79,-4.025 -1.448,-7.692 -1.975,-11.002 -0.602,1.806 -1.391,3.855 -2.369,6.15 -0.978,2.294 -1.937,4.532 -2.878,6.713 -0.94,2.182 -1.843,4.213 -2.708,6.093 -0.865,1.881 -1.485,3.273 -1.861,4.175 z"
   fill="#10477e"
   fill-rule="nonzero"
   opacity="1"
   stroke="none"
   id="path3-7" />

<path
   d="m 533.99,279.74 c -3.762,4.137 -7.372,7.635 -10.833,10.494 -3.46,2.858 -7.033,5.152 -10.719,6.882 -3.686,1.731 -7.616,2.991 -11.791,3.78 -4.175,0.79 -8.782,1.185 -13.822,1.185 -6.845,0 -13.014,-1.166 -18.505,-3.498 -5.491,-2.332 -10.174,-5.641 -14.048,-9.929 -3.874,-4.288 -6.864,-9.478 -8.97,-15.571 -2.106,-6.093 -3.16,-12.939 -3.16,-20.536 0,-9.553 1.561,-18.618 4.683,-27.193 3.122,-8.576 7.485,-16.098 13.089,-22.567 5.604,-6.469 12.242,-11.603 19.915,-15.402 7.673,-3.799 16.098,-5.698 25.275,-5.698 7.823,0 14.537,1.335 20.141,4.006 5.604,2.67 10.625,6.864 15.063,12.581 l -11.283,12.975 c -0.828,0.828 -1.768,1.561 -2.821,2.201 -1.053,0.639 -2.219,0.959 -3.498,0.959 -1.504,0 -2.764,-0.32 -3.78,-0.959 -1.015,-0.64 -2.125,-1.317 -3.328,-2.031 -1.204,-0.715 -2.671,-1.392 -4.401,-2.031 -1.73,-0.64 -3.987,-0.959 -6.77,-0.959 -3.46,0 -6.827,0.996 -10.099,2.99 -3.272,1.993 -6.187,4.87 -8.744,8.632 -2.558,3.761 -4.608,8.387 -6.15,13.878 -1.542,5.491 -2.313,11.735 -2.313,18.731 0,3.911 0.451,7.315 1.354,10.211 0.903,2.896 2.144,5.303 3.724,7.222 1.579,1.918 3.422,3.366 5.528,4.344 2.107,0.978 4.363,1.467 6.771,1.467 3.61,0 6.525,-0.508 8.744,-1.524 2.219,-1.015 4.156,-2.125 5.811,-3.328 1.655,-1.204 3.197,-2.313 4.626,-3.329 1.43,-1.015 3.16,-1.523 5.191,-1.523 1.128,0 2.238,0.263 3.328,0.79 1.091,0.526 2.013,1.241 2.765,2.143 z"
   fill="#10477e"
   fill-rule="nonzero"
   opacity="1"
   stroke="none"
   id="path4" />

<path
   d="m 551.592,275.001 c 0,-0.527 0,-1.166 0,-1.918 0,-0.753 0.056,-1.824 0.169,-3.216 0.113,-1.392 0.301,-3.235 0.564,-5.529 0.263,-2.294 0.621,-5.322 1.072,-9.083 l 5.98,-47.842 h -9.365 c -1.429,0 -2.633,-0.47 -3.611,-1.41 -0.978,-0.941 -1.467,-2.351 -1.467,-4.232 0,-0.075 0.076,-0.733 0.226,-1.974 0.151,-1.241 0.301,-2.558 0.451,-3.949 0.151,-1.392 0.301,-2.69 0.452,-3.893 0.15,-1.204 0.225,-1.881 0.225,-2.031 l 0.339,-3.047 17.715,-3.61 9.817,-28.548 c 1.128,-3.61 3.685,-5.416 7.672,-5.416 h 18.956 l -4.287,34.189 h 26.177 l -2.933,23.921 h -26.178 l -5.642,45.924 c -0.376,3.084 -0.658,5.51 -0.846,7.278 -0.188,1.767 -0.338,3.121 -0.451,4.062 -0.113,0.94 -0.188,1.579 -0.226,1.918 -0.038,0.338 -0.056,0.545 -0.056,0.62 0,2.182 0.507,4.006 1.523,5.473 1.015,1.467 2.614,2.2 4.795,2.2 1.204,0 2.201,-0.132 2.99,-0.395 0.79,-0.263 1.486,-0.564 2.088,-0.903 0.602,-0.338 1.166,-0.639 1.692,-0.902 0.527,-0.264 1.129,-0.395 1.806,-0.395 1.053,0 1.843,0.244 2.369,0.733 0.527,0.489 1.016,1.26 1.467,2.313 l 7.673,16.587 c -4.664,3.385 -9.666,5.924 -15.007,7.616 -5.341,1.693 -10.719,2.539 -16.135,2.539 -4.514,0 -8.576,-0.62 -12.186,-1.862 -3.611,-1.241 -6.714,-3.046 -9.309,-5.416 -2.596,-2.369 -4.627,-5.209 -6.093,-8.519 -1.467,-3.309 -2.276,-7.071 -2.426,-11.283 z"
   fill="#10477e"
   fill-rule="nonzero"
   opacity="1"
   stroke="none"
   id="path5-5" />

<path
   d="m 673.453,183.267 -13.992,117.009 h -34.527 l 13.991,-117.009 z m 6.544,-32.045 c 0,2.783 -0.602,5.397 -1.805,7.842 -1.204,2.444 -2.783,4.588 -4.739,6.431 -1.956,1.843 -4.194,3.31 -6.714,4.401 -2.52,1.09 -5.096,1.636 -7.729,1.636 -2.633,0 -5.153,-0.546 -7.56,-1.636 -2.407,-1.091 -4.532,-2.558 -6.375,-4.401 -1.843,-1.843 -3.329,-3.987 -4.457,-6.431 -1.128,-2.445 -1.693,-5.059 -1.693,-7.842 0,-2.784 0.565,-5.416 1.693,-7.899 1.128,-2.482 2.652,-4.664 4.57,-6.544 1.918,-1.881 4.081,-3.366 6.488,-4.457 2.407,-1.091 4.927,-1.636 7.56,-1.636 2.708,0 5.303,0.526 7.785,1.579 2.483,1.054 4.683,2.52 6.601,4.401 1.918,1.881 3.46,4.062 4.626,6.544 1.166,2.483 1.749,5.153 1.749,8.012 z"
   fill="#10477e"
   fill-rule="nonzero"
   opacity="1"
   stroke="none"
   id="path6-3" />

<path
   d="m 732.804,276.129 c 3.911,0 7.409,-1.185 10.493,-3.554 3.084,-2.37 5.698,-5.604 7.842,-9.704 2.144,-4.099 3.799,-8.876 4.965,-14.33 1.166,-5.453 1.749,-11.264 1.749,-17.433 0,-8.5 -1.147,-14.574 -3.442,-18.222 -2.294,-3.649 -6.036,-5.473 -11.227,-5.473 -3.911,0 -7.409,1.185 -10.493,3.554 -3.084,2.37 -5.698,5.586 -7.842,9.648 -2.144,4.062 -3.799,8.838 -4.965,14.33 -1.166,5.491 -1.749,11.321 -1.749,17.489 0,8.35 1.147,14.386 3.442,18.11 2.294,3.723 6.036,5.585 11.227,5.585 z m -3.16,25.952 c -6.544,0 -12.656,-1.091 -18.335,-3.272 -5.68,-2.182 -10.607,-5.36 -14.782,-9.535 -4.175,-4.174 -7.447,-9.327 -9.816,-15.458 -2.37,-6.131 -3.555,-13.183 -3.555,-21.156 0,-10.381 1.712,-19.916 5.134,-28.604 3.423,-8.688 8.031,-16.192 13.823,-22.51 5.792,-6.319 12.505,-11.246 20.141,-14.782 7.635,-3.535 15.665,-5.303 24.09,-5.303 6.544,0 12.637,1.091 18.279,3.272 5.642,2.182 10.55,5.36 14.725,9.535 4.175,4.175 7.466,9.328 9.873,15.458 2.407,6.131 3.61,13.183 3.61,21.157 0,10.23 -1.711,19.689 -5.134,28.377 -3.422,8.689 -8.03,16.211 -13.822,22.567 -5.792,6.357 -12.506,11.321 -20.141,14.894 -7.635,3.574 -15.665,5.36 -24.09,5.36 z"
   fill="#10477e"
   fill-rule="nonzero"
   opacity="1"
   stroke="none"
   id="path7-5" />

<path
   d="m 868.656,300.276 8.801,-74.358 c 0.151,-1.204 0.263,-2.313 0.339,-3.329 0.075,-1.015 0.113,-1.974 0.113,-2.877 0,-3.987 -0.696,-6.751 -2.088,-8.293 -1.392,-1.542 -3.479,-2.313 -6.262,-2.313 -2.558,0 -5.228,0.789 -8.011,2.369 -2.784,1.58 -5.435,3.799 -7.955,6.657 -2.52,2.859 -4.833,6.338 -6.94,10.438 -2.106,4.099 -3.761,8.631 -4.964,13.596 l -6.432,58.11 H 800.279 L 814.27,183.267 h 18.053 c 3.611,0 6.432,0.846 8.463,2.538 2.031,1.693 3.047,4.457 3.047,8.294 v 9.365 c 5.641,-7.522 11.81,-13.07 18.504,-16.643 6.695,-3.573 13.616,-5.36 20.762,-5.36 4.363,0 8.368,0.79 12.017,2.37 3.648,1.579 6.789,3.893 9.421,6.939 2.633,3.047 4.702,6.789 6.206,11.227 1.505,4.438 2.257,9.553 2.257,15.346 0,1.354 -0.056,2.745 -0.169,4.174 -0.113,1.43 -0.245,2.896 -0.395,4.401 l -8.801,74.358 z"
   fill="#10477e"
   fill-rule="nonzero"
   opacity="1"
   stroke="none"
   id="path8" />

</g>

</g>

</g>
    <path
       d="m 909.99768,413.59001 a 60.78746,60.78746 0 1 0 -121.57492,0 60.78746,60.78746 0 1 0 121.57492,0 z m -135.60279,0 a 74.815331,74.815331 0 1 1 149.63066,0 74.815331,74.815331 0 1 1 -149.63066,0 z m 55.03018,-31.82574 c 2.22108,-1.22744 4.90976,-1.19822 7.10161,0.14612 l 42.08363,25.71777 c 2.07495,1.28589 3.36084,3.5362 3.36084,5.99107 0,2.45488 -1.28589,4.70519 -3.36084,5.99108 l -42.08363,25.71777 c -2.16263,1.31511 -4.88053,1.37356 -7.10161,0.14612 -2.22108,-1.22744 -3.59464,-3.56542 -3.59464,-6.10797 v -51.49399 c 0,-2.54255 1.37356,-4.88053 3.59464,-6.10797 z"
       id="path1-62"
       style="fill:#10477e;fill-opacity:1;stroke-width:0.292247;filter:url(#filter20)" />
  </g>
</svg>
